<svg width="153" height="153" viewBox="0 0 153 153" fill="none" xmlns="http://www.w3.org/2000/svg">
<path d="M76.5 144C113.779 144 144 113.779 144 76.5C144 39.2208 113.779 9 76.5 9C39.2208 9 9 39.2208 9 76.5C9 113.779 39.2208 144 76.5 144Z" stroke="url(#paint0_linear_13_19)" stroke-width="17"/>
<path d="M58.083 57.6C60.7629 57.6 63.0831 58.1001 65.043 59.1C67.0431 60.06 68.6031 61.44 69.723 63.24C70.8429 65.04 71.403 67.1799 71.403 69.66C71.403 72.1401 70.8429 74.28 69.723 76.08C68.6031 77.88 67.0431 79.2801 65.043 80.28C63.0831 81.24 60.7629 81.72 58.083 81.72H48.903V97.2H44.103V57.6H58.083ZM57.363 77.22C60.483 77.22 62.763 76.5801 64.203 75.3C65.643 73.98 66.363 72.0999 66.363 69.66C66.363 67.1799 65.643 65.3001 64.203 64.02C62.763 62.7399 60.483 62.1 57.363 62.1H48.903V77.22H57.363ZM112.644 87.06C111.804 89.3001 110.604 91.2399 109.044 92.88C107.484 94.4799 105.644 95.7 103.524 96.54C101.444 97.38 99.1641 97.8 96.684 97.8C92.9241 97.8 89.664 96.9801 86.904 95.34C84.1842 93.66 82.0641 91.2999 80.544 88.26C79.0641 85.2201 78.324 81.6 78.324 77.4C78.324 73.2 79.0641 69.5799 80.544 66.54C82.0641 63.5001 84.1842 61.1601 86.904 59.52C89.664 57.84 92.8842 57 96.564 57C99.1242 57 101.404 57.36 103.404 58.08C105.404 58.7601 107.104 59.7999 108.504 61.2C109.944 62.5599 111.084 64.2399 111.924 66.24L107.184 68.46C106.304 66.18 105.024 64.4601 103.344 63.3C101.704 62.1 99.564 61.5 96.924 61.5C94.2441 61.5 91.884 62.1399 89.844 63.42C87.804 64.6599 86.2041 66.4599 85.044 68.82C83.9241 71.1801 83.364 74.04 83.364 77.4C83.364 80.7201 83.904 83.58 84.984 85.98C86.064 88.3401 87.6042 90.1599 89.604 91.44C91.6041 92.6799 93.9642 93.3 96.684 93.3C99.324 93.3 101.624 92.64 103.584 91.32C105.544 89.9601 106.964 87.9399 107.844 85.26L112.644 87.06Z" fill="url(#paint1_linear_13_19)"/>
<defs>
<linearGradient id="paint0_linear_13_19" x1="8.55882" y1="8.55882" x2="143.559" y2="144.441" gradientUnits="userSpaceOnUse">
<stop stop-color="#3183FF"/>
<stop offset="1" stop-color="#1AE986"/>
</linearGradient>
<linearGradient id="paint1_linear_13_19" x1="10" y1="14" x2="150.5" y2="154.5" gradientUnits="userSpaceOnUse">
<stop stop-color="#3183FF"/>
<stop offset="1" stop-color="#1AE986"/>
</linearGradient>
</defs>
</svg>
