<svg width="172" height="157" viewBox="0 0 172 157" fill="none" xmlns="http://www.w3.org/2000/svg">
<g filter="url(#filter0_d_7_83)">
<path d="M161 119.75L155.812 44.5231C154.997 32.7128 154.59 26.8076 152.03 22.3312C149.777 18.39 146.384 15.2228 142.297 13.2456C137.655 11 131.736 11 119.897 11H52.1028C40.2643 11 34.3451 11 29.7032 13.2456C25.6163 15.2228 22.2231 18.39 19.9695 22.3312C17.4098 26.8076 17.0026 32.7128 16.1881 44.5231L11 119.75M161 119.75C161 134.247 149.247 146 134.75 146H37.25C22.7525 146 11 134.247 11 119.75M161 119.75C161 105.253 149.247 93.5 134.75 93.5H37.25C22.7525 93.5 11 105.253 11 119.75M41 119.75H41.075M86 119.75H131" stroke="black" stroke-width="2" stroke-linecap="round" stroke-linejoin="round" shape-rendering="crispEdges"/>
</g>
<defs>
<filter id="filter0_d_7_83" x="0" y="0" width="172" height="157" filterUnits="userSpaceOnUse" color-interpolation-filters="sRGB">
<feFlood flood-opacity="0" result="BackgroundImageFix"/>
<feColorMatrix in="SourceAlpha" type="matrix" values="0 0 0 0 0 0 0 0 0 0 0 0 0 0 0 0 0 0 127 0" result="hardAlpha"/>
<feOffset/>
<feGaussianBlur stdDeviation="5"/>
<feComposite in2="hardAlpha" operator="out"/>
<feColorMatrix type="matrix" values="0 0 0 0 1 0 0 0 0 0.970334 0 0 0 0 0.258333 0 0 0 1 0"/>
<feBlend mode="normal" in2="BackgroundImageFix" result="effect1_dropShadow_7_83"/>
<feBlend mode="normal" in="SourceGraphic" in2="effect1_dropShadow_7_83" result="shape"/>
</filter>
</defs>
</svg>
