<svg width="100" height="100" viewBox="0 0 100 100" fill="none" xmlns="http://www.w3.org/2000/svg">
<path d="M15.3993 43.4609L0 73.1484V18.5C0 11.6055 4.98264 6 11.1111 6H31.5104C34.4618 6 37.2917 7.30859 39.375 9.65234L43.9757 14.8281C46.059 17.1719 48.8889 18.4805 51.8403 18.4805H72.2222C78.3507 18.4805 83.3333 24.0859 83.3333 30.9805V37.2305H25C21.0417 37.2305 17.3958 39.5938 15.3993 43.4414V43.4609ZM20.191 46.6055C21.1979 44.6719 23.0208 43.5 25 43.5H94.4445C96.441 43.5 98.2639 44.6914 99.2535 46.6445C100.243 48.5977 100.243 50.9805 99.2361 52.9141L79.7917 90.4141C78.8021 92.3281 76.9792 93.5 75 93.5H5.55556C3.55903 93.5 1.73611 92.3086 0.746528 90.3555C-0.243056 88.4023 -0.243056 86.0195 0.763889 84.0859L20.2083 46.5859L20.191 46.6055Z" fill="white"/>
</svg>
