<svg width="172" height="157" viewBox="0 0 172 157" fill="none" xmlns="http://www.w3.org/2000/svg">
<g filter="url(#filter0_d_7_86)">
<path d="M161 56H11M101 119.75L119.75 101L101 82.25M71 82.25L52.25 101L71 119.75M11 47L11 110C11 122.601 11 128.902 13.4524 133.715C15.6095 137.948 19.0516 141.39 23.2852 143.548C28.0982 146 34.3988 146 47 146H125C137.601 146 143.902 146 148.715 143.548C152.948 141.39 156.391 137.948 158.548 133.715C161 128.902 161 122.601 161 110V47C161 34.3988 161 28.0982 158.548 23.2852C156.391 19.0516 152.948 15.6095 148.715 13.4524C143.902 11 137.601 11 125 11L47 11C34.3988 11 28.0982 11 23.2852 13.4524C19.0516 15.6095 15.6095 19.0516 13.4524 23.2852C11 28.0982 11 34.3988 11 47Z" stroke="black" stroke-width="2" stroke-linecap="round" stroke-linejoin="round" shape-rendering="crispEdges"/>
</g>
<defs>
<filter id="filter0_d_7_86" x="0" y="0" width="172" height="157" filterUnits="userSpaceOnUse" color-interpolation-filters="sRGB">
<feFlood flood-opacity="0" result="BackgroundImageFix"/>
<feColorMatrix in="SourceAlpha" type="matrix" values="0 0 0 0 0 0 0 0 0 0 0 0 0 0 0 0 0 0 127 0" result="hardAlpha"/>
<feOffset/>
<feGaussianBlur stdDeviation="5"/>
<feComposite in2="hardAlpha" operator="out"/>
<feColorMatrix type="matrix" values="0 0 0 0 0.408333 0 0 0 0 1 0 0 0 0 0.8935 0 0 0 1 0"/>
<feBlend mode="normal" in2="BackgroundImageFix" result="effect1_dropShadow_7_86"/>
<feBlend mode="normal" in="SourceGraphic" in2="effect1_dropShadow_7_86" result="shape"/>
</filter>
</defs>
</svg>
