<svg xmlns="http://www.w3.org/2000/svg" width="100" height="100" viewBox="0 0 100 100" fill="none">
  <path d="M18.75 12.5C18.75 5.60547 24.3555 0 31.25 0H87.5C94.3945 0 100 5.60547 100 12.5V75C100 81.8945 94.3945 87.5 87.5 87.5H15.625C6.99219 87.5 0 80.5078 0 71.875V18.75C0 15.293 2.79297 12.5 6.25 12.5C9.70703 12.5 12.5 15.293 12.5 18.75V71.875C12.5 73.5938 13.9062 75 15.625 75C17.3438 75 18.75 73.5938 18.75 71.875V12.5ZM31.25 17.1875V32.8125C31.25 35.4102 33.3398 37.5 35.9375 37.5H57.8125C60.4102 37.5 62.5 35.4102 62.5 32.8125V17.1875C62.5 14.5898 60.4102 12.5 57.8125 12.5H35.9375C33.3398 12.5 31.25 14.5898 31.25 17.1875ZM71.875 15.625C71.875 17.3438 73.2812 18.75 75 18.75H84.375C86.0938 18.75 87.5 17.3438 87.5 15.625C87.5 13.9062 86.0938 12.5 84.375 12.5H75C73.2812 12.5 71.875 13.9062 71.875 15.625ZM71.875 34.375C71.875 36.0938 73.2812 37.5 75 37.5H84.375C86.0938 37.5 87.5 36.0938 87.5 34.375C87.5 32.6562 86.0938 31.25 84.375 31.25H75C73.2812 31.25 71.875 32.6562 71.875 34.375ZM31.25 53.125C31.25 54.8438 32.6562 56.25 34.375 56.25H84.375C86.0938 56.25 87.5 54.8438 87.5 53.125C87.5 51.4062 86.0938 50 84.375 50H34.375C32.6562 50 31.25 51.4062 31.25 53.125ZM31.25 71.875C31.25 73.5938 32.6562 75 34.375 75H84.375C86.0938 75 87.5 73.5938 87.5 71.875C87.5 70.1562 86.0938 68.75 84.375 68.75H34.375C32.6562 68.75 31.25 70.1562 31.25 71.875Z" fill="white"/>
</svg>