<svg width="40" height="40" viewBox="0 0 40 40" fill="none" xmlns="http://www.w3.org/2000/svg">
<rect width="40" height="40" rx="20" fill="black"/>
<path d="M11.5058 22.478C11.4578 22.478 11.4098 22.469 11.3618 22.451L7.77084 20.84C7.55484 20.744 7.44684 20.588 7.44684 20.372V20.3C7.44684 20.084 7.55484 19.928 7.77084 19.832L11.3618 18.221C11.4098 18.203 11.4578 18.194 11.5058 18.194C11.6078 18.194 11.6918 18.23 11.7578 18.302C11.8298 18.368 11.8658 18.452 11.8658 18.554C11.8658 18.71 11.7848 18.824 11.6228 18.896L8.38284 20.336L11.6228 21.776C11.7848 21.848 11.8658 21.962 11.8658 22.118C11.8658 22.22 11.8298 22.307 11.7578 22.379C11.6918 22.445 11.6078 22.478 11.5058 22.478ZM13.6305 23.045C13.5165 23.045 13.4205 23.006 13.3425 22.928C13.2645 22.85 13.2255 22.754 13.2255 22.64V17.132C13.2255 17.018 13.2645 16.922 13.3425 16.844C13.4205 16.76 13.5165 16.718 13.6305 16.718H15.6825C16.1385 16.718 16.5195 16.778 16.8255 16.898C17.1375 17.012 17.3835 17.168 17.5635 17.366C17.7495 17.558 17.8815 17.771 17.9595 18.005C18.0435 18.239 18.0855 18.476 18.0855 18.716C18.0855 18.956 18.0435 19.193 17.9595 19.427C17.8815 19.661 17.7495 19.877 17.5635 20.075C17.3835 20.267 17.1375 20.423 16.8255 20.543C16.5195 20.657 16.1385 20.714 15.6825 20.714H14.0445V22.64C14.0445 22.754 14.0025 22.85 13.9185 22.928C13.8405 23.006 13.7445 23.045 13.6305 23.045ZM14.0445 19.94H15.6015C16.0515 19.94 16.3965 19.88 16.6365 19.76C16.8765 19.634 17.0415 19.478 17.1315 19.292C17.2215 19.1 17.2665 18.908 17.2665 18.716C17.2665 18.518 17.2215 18.326 17.1315 18.14C17.0415 17.954 16.8765 17.801 16.6365 17.681C16.3965 17.555 16.0515 17.492 15.6015 17.492H14.0445V19.94ZM22.0444 23.09C21.4504 23.09 20.9134 22.961 20.4334 22.703C19.9594 22.439 19.5844 22.067 19.3084 21.587C19.0324 21.101 18.8944 20.525 18.8944 19.859C18.8944 19.187 19.0324 18.611 19.3084 18.131C19.5844 17.651 19.9594 17.282 20.4334 17.024C20.9134 16.76 21.4504 16.628 22.0444 16.628C22.4884 16.628 22.8724 16.682 23.1964 16.79C23.5204 16.898 23.8204 17.03 24.0964 17.186C24.1564 17.216 24.2014 17.258 24.2314 17.312C24.2674 17.36 24.2884 17.426 24.2944 17.51C24.3004 17.606 24.2704 17.69 24.2044 17.762C24.1384 17.834 24.0484 17.87 23.9344 17.87C23.8744 17.87 23.8204 17.858 23.7724 17.834C23.5324 17.708 23.2864 17.606 23.0344 17.528C22.7824 17.45 22.4794 17.411 22.1254 17.411C21.5974 17.411 21.1534 17.519 20.7934 17.735C20.4334 17.951 20.1634 18.245 19.9834 18.617C19.8034 18.983 19.7134 19.397 19.7134 19.859C19.7134 20.321 19.8034 20.738 19.9834 21.11C20.1634 21.476 20.4334 21.767 20.7934 21.983C21.1534 22.199 21.5974 22.307 22.1254 22.307C22.4794 22.307 22.7824 22.268 23.0344 22.19C23.2864 22.112 23.5324 22.01 23.7724 21.884C23.8204 21.86 23.8744 21.848 23.9344 21.848C24.0484 21.848 24.1384 21.884 24.2044 21.956C24.2704 22.028 24.3004 22.112 24.2944 22.208C24.2884 22.292 24.2674 22.361 24.2314 22.415C24.2014 22.463 24.1564 22.502 24.0964 22.532C23.8204 22.688 23.5204 22.82 23.1964 22.928C22.8724 23.036 22.4884 23.09 22.0444 23.09ZM25.4582 23.855C25.3502 23.855 25.2602 23.819 25.1882 23.747C25.1222 23.675 25.0892 23.588 25.0892 23.486C25.0892 23.462 25.0922 23.435 25.0982 23.405C25.1042 23.381 25.1102 23.363 25.1162 23.351L27.5012 16.376C27.5252 16.304 27.5672 16.244 27.6272 16.196C27.6872 16.148 27.7622 16.124 27.8522 16.124C27.9602 16.124 28.0472 16.16 28.1132 16.232C28.1852 16.304 28.2212 16.391 28.2212 16.493C28.2212 16.517 28.2182 16.544 28.2122 16.574C28.2062 16.598 28.2002 16.616 28.1942 16.628L25.8092 23.603C25.7852 23.675 25.7432 23.735 25.6832 23.783C25.6232 23.831 25.5482 23.855 25.4582 23.855ZM29.4935 22.478C29.3975 22.478 29.3135 22.445 29.2415 22.379C29.1695 22.307 29.1335 22.22 29.1335 22.118C29.1335 21.962 29.2145 21.848 29.3765 21.776L32.6165 20.336L29.3765 18.896C29.2145 18.824 29.1335 18.71 29.1335 18.554C29.1335 18.452 29.1695 18.368 29.2415 18.302C29.3135 18.23 29.3975 18.194 29.4935 18.194C29.5475 18.194 29.5955 18.203 29.6375 18.221L33.2285 19.832C33.4445 19.928 33.5525 20.084 33.5525 20.3V20.372C33.5525 20.588 33.4445 20.744 33.2285 20.84L29.6375 22.451C29.5955 22.469 29.5475 22.478 29.4935 22.478Z" fill="white"/>
</svg>
