<svg width="2763" height="1872" viewBox="0 0 2763 1872" fill="none" xmlns="http://www.w3.org/2000/svg">
<rect width="2763" height="1872" fill="#1E1E1E"/>
<g filter="url(#filter0_dd_13_2)">
<path d="M1984.29 570.79C2006.37 548.663 2038.62 540.08 2068.78 548.306L2515.83 670.268C2543.98 677.946 2553.33 713.167 2532.7 733.798L1750.53 1515.97C1715.27 1551.23 1663.8 1564.9 1615.68 1551.78L1199.1 1438.2C1170.97 1430.53 1161.6 1395.34 1182.19 1374.7L1984.29 570.79Z" fill="url(#paint0_linear_13_2)" shape-rendering="crispEdges"/>
</g>
<g filter="url(#filter1_f_13_2)">
<path d="M1957.29 461.79C1979.37 439.663 2011.62 431.08 2041.78 439.306L2488.83 561.268C2516.98 568.946 2526.33 604.167 2505.7 624.798L1723.53 1406.97C1688.27 1442.23 1636.8 1455.9 1588.68 1442.78L1172.1 1329.2C1143.97 1321.53 1134.6 1286.34 1155.19 1265.7L1957.29 461.79Z" fill="#1AE986" fill-opacity="0.21"/>
</g>
<g filter="url(#filter2_f_13_2)">
<path d="M1928.29 317.79C1950.37 295.663 1982.62 287.08 2012.78 295.306L2459.83 417.268C2487.98 424.946 2497.33 460.167 2476.7 480.798L1694.53 1262.97C1659.27 1298.23 1607.8 1311.9 1559.68 1298.78L1143.1 1185.2C1114.97 1177.53 1105.6 1142.34 1126.19 1121.7L1928.29 317.79Z" fill="#2A2A2A" fill-opacity="0.46"/>
</g>
<g filter="url(#filter3_d_13_2)">
<path d="M1446.54 843.78C1468.76 821.669 1501.16 813.225 1531.35 821.676L1892.27 922.718C1920.07 930.5 1929.38 965.211 1909.21 985.861L1799.2 1098.51C1763.94 1134.61 1711.88 1148.77 1663.19 1135.49L1326.37 1043.66C1298.17 1035.97 1288.85 1000.67 1309.56 980.056L1446.54 843.78Z" fill="#FFD600" fill-opacity="0.51" shape-rendering="crispEdges"/>
</g>
<g filter="url(#filter4_df_13_2)">
<path d="M1940.97 341.755C1963.11 321.972 1993.81 314.844 2022.4 322.848L2391.09 426.065C2416.18 433.091 2424.07 464.78 2405.19 482.746V482.746C2374.03 512.389 2329.65 523.589 2288.16 512.277L1943.4 418.275C1914.33 410.349 1905.61 373.358 1928.07 353.279L1940.97 341.755Z" fill="#3183FF" fill-opacity="0.69" shape-rendering="crispEdges"/>
</g>
<g filter="url(#filter5_d_13_2)">
<path d="M1832.01 454.584C1854.09 433.08 1885.89 424.858 1915.62 432.969L2283.42 533.311C2311.88 541.075 2321.03 576.892 2299.77 597.349L2203.07 690.429L1994.48 895.014C1978.78 910.413 1955.91 915.988 1934.88 909.545L1841.55 880.943C1814.6 872.684 1805.71 838.986 1825.07 818.503L1944.63 692.063C1969.62 665.632 1957.28 622.092 1922.13 612.709L1788.63 577.064C1760.14 569.457 1750.79 533.708 1771.92 513.131L1832.01 454.584Z" fill="#FF4ED8" fill-opacity="0.56" shape-rendering="crispEdges"/>
</g>
<g filter="url(#filter6_d_13_2)">
<path d="M1676.99 607.327C1698.97 585.459 1730.93 576.941 1760.88 584.97L1909.75 624.881C1938.11 632.484 1947.5 668.003 1926.6 688.628L1809.68 804.053C1774.57 838.709 1723.72 852.161 1676.07 839.401L1556.78 807.457C1528.48 799.879 1519.04 764.476 1539.81 743.812L1676.99 607.327Z" fill="#4DD4FF" fill-opacity="0.46" shape-rendering="crispEdges"/>
</g>
<g filter="url(#filter7_f_13_2)">
<path d="M1270.1 1064.7L1680.37 1175.92C1686.68 1177.63 1688.78 1185.51 1684.16 1190.13L1632.8 1241.49C1625.1 1249.2 1613.87 1252.21 1603.34 1249.39L1189.37 1138.56C1183.82 1137.08 1181.93 1130.16 1185.95 1126.07L1237.41 1073.58C1245.9 1064.92 1258.4 1061.52 1270.1 1064.7Z" stroke="white"/>
</g>
<g filter="url(#filter8_df_13_2)">
<path d="M1257.78 1092C1264.15 1085.77 1273.25 1083.23 1281.92 1085.27L1320.1 1094.23C1326.18 1095.66 1328.35 1103.21 1323.95 1107.65L1296.55 1135.33C1289.42 1142.54 1278.95 1145.32 1269.18 1142.62L1235.06 1133.17C1228.38 1131.32 1226.21 1122.92 1231.17 1118.07L1257.78 1092Z" fill="white" fill-opacity="0.33" shape-rendering="crispEdges"/>
</g>
<g filter="url(#filter9_df_13_2)">
<path d="M1334.78 1112C1341.15 1105.77 1350.25 1103.23 1358.92 1105.27L1397.1 1114.23C1403.18 1115.66 1405.35 1123.21 1400.95 1127.65L1373.55 1155.33C1366.42 1162.54 1355.95 1165.32 1346.18 1162.62L1312.06 1153.17C1305.38 1151.32 1303.21 1142.92 1308.17 1138.07L1334.78 1112Z" fill="white" fill-opacity="0.33" shape-rendering="crispEdges"/>
</g>
<g filter="url(#filter10_df_13_2)">
<path d="M1489.78 1153C1496.15 1146.77 1505.25 1144.23 1513.92 1146.27L1552.1 1155.23C1558.18 1156.66 1560.35 1164.21 1555.95 1168.65L1528.55 1196.33C1521.42 1203.54 1510.95 1206.32 1501.18 1203.62L1467.06 1194.17C1460.38 1192.32 1458.21 1183.92 1463.17 1179.07L1489.78 1153Z" fill="white" fill-opacity="0.33" shape-rendering="crispEdges"/>
</g>
<g filter="url(#filter11_f_13_2)">
<path d="M1696.26 617.991C1702.62 611.769 1711.72 609.231 1720.38 611.264L1788.08 627.15C1794.17 628.579 1796.34 636.127 1791.94 640.569L1742.63 690.346C1735.49 697.543 1725.03 700.327 1715.27 697.625L1652.07 680.14C1645.38 678.289 1643.22 669.885 1648.18 665.032L1696.26 617.991Z" fill="white" fill-opacity="0.33"/>
</g>
<g filter="url(#filter12_f_13_2)">
<path d="M1804.26 645.991C1810.62 639.769 1819.72 637.231 1828.38 639.264L1896.08 655.15C1902.17 656.579 1904.34 664.127 1899.94 668.569L1850.63 718.346C1843.49 725.543 1833.03 728.327 1823.27 725.625L1760.07 708.14C1753.38 706.289 1751.22 697.885 1756.18 693.032L1804.26 645.991Z" fill="white" fill-opacity="0.33"/>
</g>
<g filter="url(#filter13_f_13_2)">
<path d="M1722.26 729.991C1728.62 723.769 1737.72 721.231 1746.38 723.264L1814.08 739.15C1820.17 740.579 1822.34 748.127 1817.94 752.569L1768.63 802.346C1761.49 809.543 1751.03 812.327 1741.27 809.625L1678.07 792.14C1671.38 790.289 1669.22 781.885 1674.18 777.032L1722.26 729.991Z" fill="white" fill-opacity="0.33"/>
</g>
<g filter="url(#filter14_f_13_2)">
<path d="M1614.26 698.991C1620.62 692.769 1629.72 690.231 1638.38 692.264L1706.08 708.15C1712.17 709.579 1714.34 717.127 1709.94 721.569L1660.63 771.346C1653.49 778.543 1643.03 781.327 1633.27 778.625L1570.07 761.14C1563.38 759.289 1561.22 750.885 1566.18 746.032L1614.26 698.991Z" fill="white" fill-opacity="0.33"/>
</g>
<g filter="url(#filter15_df_13_2)">
<path d="M1565.78 1173C1572.15 1166.77 1581.25 1164.23 1589.92 1166.27L1628.1 1175.23C1634.18 1176.66 1636.35 1184.21 1631.95 1188.65L1604.55 1216.33C1597.42 1223.54 1586.95 1226.32 1577.18 1223.62L1543.06 1214.17C1536.38 1212.32 1534.21 1203.92 1539.17 1199.07L1565.78 1173Z" fill="white" fill-opacity="0.33" shape-rendering="crispEdges"/>
</g>
<g filter="url(#filter16_d_13_2)">
<path d="M1399.4 1097.6C1405.69 1091.31 1414.76 1088.67 1423.44 1090.61L1474.56 1102C1482.29 1103.72 1485.04 1113.33 1479.39 1118.89L1443.27 1154.42C1436.28 1161.29 1426.19 1164.01 1416.69 1161.58L1367.29 1148.92C1360.54 1147.19 1358.23 1138.77 1363.16 1133.84L1399.4 1097.6Z" fill="#9F9F9F"/>
</g>
<path d="M1377.5 659L1483 1115.5L1443.01 1154.71C1435.88 1161.7 1425.58 1164.37 1415.96 1161.71L1359 1146L1241 687L1377.5 659Z" fill="url(#paint1_linear_13_2)" fill-opacity="0.15"/>
<path d="M1841 72L1937.28 652.104C1939.31 664.303 1935.42 676.74 1926.82 685.623L1811.41 804.776C1777.03 840.271 1725.81 853.779 1678.4 839.853L1551.75 802.653C1539.92 799.18 1531.02 789.408 1528.66 777.313L1410.5 172L1841 72Z" fill="url(#paint2_linear_13_2)" fill-opacity="0.15"/>
<path d="M104 143.2H157.8C172.867 143.2 184.733 147 193.4 154.6C202.2 162.067 206.6 172.733 206.6 186.6C206.6 200.733 202.267 211.467 193.6 218.8C184.933 226 173 229.6 157.8 229.6H124.4V283H104V143.2ZM155.6 212.6C164.933 212.6 172.333 210.667 177.8 206.8C183.267 202.933 186 196.2 186 186.6C186 177 183.267 170.267 177.8 166.4C172.333 162.4 164.933 160.4 155.6 160.4H124.4V212.6H155.6ZM266.37 286C248.637 286 234.704 281.6 224.57 272.8C214.57 263.867 209.57 251.333 209.57 235.2C209.57 219.467 214.037 207 222.97 197.8C232.037 188.6 244.904 184 261.57 184C272.637 184 282.037 186.133 289.77 190.4C297.504 194.533 303.304 200.333 307.17 207.8C311.17 215.133 313.17 223.533 313.17 233V243H228.77C229.437 252.067 233.237 258.867 240.17 263.4C247.237 267.8 256.77 270 268.77 270C274.904 270 281.104 269.467 287.37 268.4C293.637 267.2 299.17 265.667 303.97 263.8V280C299.704 281.733 294.037 283.133 286.97 284.2C280.037 285.4 273.17 286 266.37 286ZM294.17 228.8C293.904 219.733 290.904 212.733 285.17 207.8C279.57 202.733 271.57 200.2 261.17 200.2C251.037 200.2 243.17 202.8 237.57 208C231.97 213.2 229.037 220.133 228.77 228.8H294.17ZM335.25 187H354.85V201.2C364.717 189.733 378.05 184 394.85 184C404.45 184 413.05 186.133 420.65 190.4C428.383 194.667 434.383 200.667 438.65 208.4C443.05 216 445.25 224.867 445.25 235C445.25 245 443.05 253.867 438.65 261.6C434.383 269.333 428.45 275.333 420.85 279.6C413.25 283.867 404.583 286 394.85 286C386.85 286 379.383 284.667 372.45 282C365.517 279.333 359.85 275.4 355.45 270.2V326.8H335.25V187ZM390.25 270C396.783 270 402.65 268.6 407.85 265.8C413.183 262.867 417.317 258.733 420.25 253.4C423.317 248.067 424.85 241.933 424.85 235C424.85 228.067 423.317 222 420.25 216.8C417.317 211.467 413.183 207.4 407.85 204.6C402.65 201.667 396.783 200.2 390.25 200.2C382.117 200.2 374.917 202.333 368.65 206.6C362.517 210.867 358.117 216.733 355.45 224.2V245.8C357.717 253.133 362.05 259 368.45 263.4C374.85 267.8 382.117 270 390.25 270ZM479.081 168.2C475.748 168.2 472.948 167.067 470.681 164.8C468.415 162.533 467.281 159.733 467.281 156.4C467.281 153.067 468.415 150.267 470.681 148C472.948 145.733 475.748 144.6 479.081 144.6C482.548 144.6 485.415 145.733 487.681 148C490.081 150.267 491.281 153.067 491.281 156.4C491.281 159.733 490.081 162.533 487.681 164.8C485.415 167.067 482.548 168.2 479.081 168.2ZM468.881 187H489.481V283H468.881V187ZM529.281 168.2C525.815 168.2 522.948 167.067 520.681 164.8C518.415 162.533 517.281 159.733 517.281 156.4C517.281 153.067 518.415 150.267 520.681 148C523.081 145.733 525.948 144.6 529.281 144.6C532.615 144.6 535.415 145.733 537.681 148C540.081 150.267 541.281 153.067 541.281 156.4C541.281 159.733 540.081 162.533 537.681 164.8C535.415 167.067 532.615 168.2 529.281 168.2ZM505.481 329.2C499.481 329.2 494.415 328.467 490.281 327V310.4C493.748 312 497.748 312.8 502.281 312.8C508.281 312.8 512.548 311.333 515.081 308.4C517.748 305.6 519.081 301 519.081 294.6V187H539.481V296C539.481 307.067 536.415 315.333 530.281 320.8C524.148 326.4 515.881 329.2 505.481 329.2ZM567.281 187H586.881V200.8C591.415 195.067 596.948 190.867 603.481 188.2C610.148 185.4 617.081 184 624.281 184C637.081 184 646.615 187.4 652.881 194.2C659.148 201 662.281 210.133 662.281 221.6V283H642.081V223.6C642.081 208 634.615 200.2 619.681 200.2C613.281 200.2 607.281 201.733 601.681 204.8C596.215 207.733 591.481 212.267 587.481 218.4V283H567.281V187Z" fill="url(#paint3_linear_13_2)"/>
<path d="M174 508C159.6 508 146.8 505 135.6 499C124.4 493 115.667 484.533 109.4 473.6C103.133 462.533 100 449.733 100 435.2C100 420.667 103.133 407.867 109.4 396.8C115.667 385.733 124.4 377.2 135.6 371.2C146.8 365.2 159.6 362.2 174 362.2C193.2 362.2 209.267 367.067 222.2 376.8V396.4C210.6 386.133 195.133 381 175.8 381C165 381 155.4 383.2 147 387.6C138.733 392 132.267 398.333 127.6 406.6C122.933 414.733 120.6 424.267 120.6 435.2C120.6 446.133 122.933 455.733 127.6 464C132.4 472.267 138.933 478.6 147.2 483C155.6 487.4 165.133 489.6 175.8 489.6C185.667 489.6 194.467 488.333 202.2 485.8C210.067 483.133 217.333 478.933 224 473.2V493C212 503 195.333 508 174 508ZM291.514 508C280.714 508 271.181 506 262.914 502C254.781 497.867 248.381 492 243.714 484.4C239.181 476.667 236.914 467.6 236.914 457.2C236.914 446.933 239.181 437.933 243.714 430.2C248.247 422.467 254.647 416.533 262.914 412.4C271.181 408.133 280.714 406 291.514 406C302.314 406 311.847 408.133 320.114 412.4C328.381 416.533 334.781 422.467 339.314 430.2C343.981 437.933 346.314 446.933 346.314 457.2C346.314 467.6 343.981 476.667 339.314 484.4C334.781 492 328.381 497.867 320.114 502C311.847 506 302.314 508 291.514 508ZM291.514 492C301.914 492 310.181 488.8 316.314 482.4C322.447 476 325.514 467.6 325.514 457.2C325.514 446.4 322.447 437.867 316.314 431.6C310.181 425.333 301.914 422.2 291.514 422.2C281.114 422.2 272.847 425.333 266.714 431.6C260.581 437.867 257.514 446.4 257.514 457.2C257.514 467.6 260.581 476 266.714 482.4C272.847 488.8 281.114 492 291.514 492ZM368.258 357.2H388.458V505H368.258V357.2ZM467.347 508C449.614 508 435.68 503.6 425.547 494.8C415.547 485.867 410.547 473.333 410.547 457.2C410.547 441.467 415.014 429 423.947 419.8C433.014 410.6 445.88 406 462.547 406C473.614 406 483.014 408.133 490.747 412.4C498.48 416.533 504.28 422.333 508.147 429.8C512.147 437.133 514.147 445.533 514.147 455V465H429.747C430.414 474.067 434.214 480.867 441.147 485.4C448.214 489.8 457.747 492 469.747 492C475.88 492 482.08 491.467 488.347 490.4C494.614 489.2 500.147 487.667 504.947 485.8V502C500.68 503.733 495.014 505.133 487.947 506.2C481.014 507.4 474.147 508 467.347 508ZM495.147 450.8C494.88 441.733 491.88 434.733 486.147 429.8C480.547 424.733 472.547 422.2 462.147 422.2C452.014 422.2 444.147 424.8 438.547 430C432.947 435.2 430.014 442.133 429.747 450.8H495.147ZM536.227 409H555.827V422.8C560.36 417.067 565.893 412.867 572.427 410.2C579.093 407.4 586.027 406 593.227 406C606.027 406 615.56 409.4 621.827 416.2C628.093 423 631.227 432.133 631.227 443.6V505H611.027V445.6C611.027 430 603.56 422.2 588.627 422.2C582.227 422.2 576.227 423.733 570.627 426.8C565.16 429.733 560.427 434.267 556.427 440.4V505H536.227V409ZM715.748 508C707.082 508 699.548 506.667 693.148 504C686.882 501.2 681.082 496.867 675.748 491V505H656.148V357.2H676.348V421.8C680.748 416.6 686.415 412.667 693.348 410C700.282 407.333 707.748 406 715.748 406C725.348 406 733.948 408.2 741.548 412.6C749.282 416.867 755.282 422.867 759.548 430.6C763.948 438.333 766.148 447.2 766.148 457.2C766.148 467.333 763.948 476.267 759.548 484C755.282 491.6 749.282 497.533 741.548 501.8C733.948 505.933 725.348 508 715.748 508ZM711.148 492C717.682 492 723.548 490.6 728.748 487.8C734.082 484.867 738.215 480.733 741.148 475.4C744.215 470.067 745.748 464 745.748 457.2C745.748 450.4 744.215 444.333 741.148 439C738.215 433.667 734.082 429.533 728.748 426.6C723.548 423.667 717.682 422.2 711.148 422.2C703.015 422.2 695.748 424.4 689.348 428.8C682.948 433.2 678.615 439.067 676.348 446.4V468C678.882 475.333 683.215 481.2 689.348 485.6C695.615 489.867 702.882 492 711.148 492ZM788.18 409H807.78V426.2C811.78 420.333 817.38 416 824.58 413.2C831.913 410.4 840.38 409 849.98 409V424.8C839.713 424.8 830.913 426.467 823.58 429.8C816.246 433.133 811.18 438.4 808.38 445.6V505H788.18V409ZM893.478 508C881.878 508 872.545 505.067 865.478 499.2C858.545 493.2 855.078 485.133 855.078 475C855.078 464.333 858.411 456.133 865.078 450.4C871.878 444.533 881.478 441.6 893.878 441.6C907.078 441.6 918.278 444.267 927.478 449.6V444.6C927.478 437 925.145 431.4 920.478 427.8C915.945 424.067 908.745 422.2 898.878 422.2C893.011 422.2 887.278 422.8 881.678 424C876.211 425.067 871.278 426.6 866.878 428.6V412.2C870.878 410.333 876.078 408.867 882.478 407.8C888.878 406.6 895.078 406 901.078 406C916.945 406 928.678 409.533 936.278 416.6C944.011 423.533 947.878 433.2 947.878 445.6V505H928.878V494.2C924.745 498.733 919.811 502.2 914.078 504.6C908.478 506.867 901.611 508 893.478 508ZM898.478 492.6C904.878 492.6 910.678 491.333 915.878 488.8C921.078 486.267 924.945 482.733 927.478 478.2V465.2C918.811 459.6 909.145 456.8 898.478 456.8C890.745 456.8 884.945 458.333 881.078 461.4C877.345 464.333 875.478 468.867 875.478 475C875.478 486.733 883.145 492.6 898.478 492.6ZM972.945 409H992.545V422.8C997.079 417.067 1002.61 412.867 1009.15 410.2C1015.81 407.4 1022.75 406 1029.95 406C1042.75 406 1052.28 409.4 1058.55 416.2C1064.81 423 1067.95 432.133 1067.95 443.6V505H1047.75V445.6C1047.75 430 1040.28 422.2 1025.35 422.2C1018.95 422.2 1012.95 423.733 1007.35 426.8C1001.88 429.733 997.145 434.267 993.145 440.4V505H972.945V409ZM1139.27 508C1129.67 508 1121 505.933 1113.27 501.8C1105.67 497.533 1099.67 491.6 1095.27 484C1091 476.267 1088.87 467.333 1088.87 457.2C1088.87 447.2 1091 438.333 1095.27 430.6C1099.67 422.867 1105.67 416.867 1113.27 412.6C1121 408.2 1129.67 406 1139.27 406C1156.6 406 1169.73 411.267 1178.67 421.8V357.2H1198.87V505H1179.27V491C1173.93 496.867 1168.07 501.2 1161.67 504C1155.4 506.667 1147.93 508 1139.27 508ZM1143.87 492C1152.13 492 1159.33 489.867 1165.47 485.6C1171.73 481.2 1176.13 475.333 1178.67 468V446.4C1176.4 439.067 1172.07 433.2 1165.67 428.8C1159.4 424.4 1152.13 422.2 1143.87 422.2C1137.33 422.2 1131.4 423.667 1126.07 426.6C1120.87 429.533 1116.73 433.667 1113.67 439C1110.73 444.333 1109.27 450.4 1109.27 457.2C1109.27 464 1110.73 470.067 1113.67 475.4C1116.73 480.733 1120.87 484.867 1126.07 487.8C1131.4 490.6 1137.33 492 1143.87 492ZM1277.7 508C1259.97 508 1246.03 503.6 1235.9 494.8C1225.9 485.867 1220.9 473.333 1220.9 457.2C1220.9 441.467 1225.37 429 1234.3 419.8C1243.37 410.6 1256.23 406 1272.9 406C1283.97 406 1293.37 408.133 1301.1 412.4C1308.83 416.533 1314.63 422.333 1318.5 429.8C1322.5 437.133 1324.5 445.533 1324.5 455V465H1240.1C1240.77 474.067 1244.57 480.867 1251.5 485.4C1258.57 489.8 1268.1 492 1280.1 492C1286.23 492 1292.43 491.467 1298.7 490.4C1304.97 489.2 1310.5 487.667 1315.3 485.8V502C1311.03 503.733 1305.37 505.133 1298.3 506.2C1291.37 507.4 1284.5 508 1277.7 508ZM1305.5 450.8C1305.23 441.733 1302.23 434.733 1296.5 429.8C1290.9 424.733 1282.9 422.2 1272.5 422.2C1262.37 422.2 1254.5 424.8 1248.9 430C1243.3 435.2 1240.37 442.133 1240.1 450.8H1305.5ZM1346.58 409H1366.18V426.2C1370.18 420.333 1375.78 416 1382.98 413.2C1390.31 410.4 1398.78 409 1408.38 409V424.8C1398.11 424.8 1389.31 426.467 1381.98 429.8C1374.64 433.133 1369.58 438.4 1366.78 445.6V505H1346.58V409Z" fill="url(#paint4_linear_13_2)"/>
<path d="M114.232 662.152H93.4V653.896H144.952V662.152H124.12V721H114.232V662.152ZM162.826 722.44C156.618 722.44 151.914 720.776 148.714 717.448C145.578 714.12 144.01 709.672 144.01 704.104V674.92H153.706V703.72C153.706 711.08 157.386 714.76 164.746 714.76C171.21 714.76 176.266 711.848 179.914 706.024V674.92H189.61V721H180.202V714.472C178.026 717.224 175.434 719.24 172.426 720.52C169.482 721.8 166.282 722.44 162.826 722.44ZM202.053 674.92H211.461V683.176C213.381 680.36 216.069 678.28 219.525 676.936C223.045 675.592 227.109 674.92 231.717 674.92V682.504C226.789 682.504 222.565 683.304 219.045 684.904C215.525 686.504 213.093 689.032 211.749 692.488V721H202.053V674.92ZM240.396 674.92H249.804V681.544C251.98 678.792 254.636 676.776 257.772 675.496C260.972 674.152 264.3 673.48 267.756 673.48C273.9 673.48 278.476 675.112 281.484 678.376C284.492 681.64 285.996 686.024 285.996 691.528V721H276.3V692.488C276.3 685 272.716 681.256 265.548 681.256C262.476 681.256 259.596 681.992 256.908 683.464C254.284 684.872 252.012 687.048 250.092 689.992V721H240.396V674.92ZM303.623 665.896C302.023 665.896 300.679 665.352 299.591 664.264C298.503 663.176 297.959 661.832 297.959 660.232C297.959 658.632 298.503 657.288 299.591 656.2C300.679 655.112 302.023 654.568 303.623 654.568C305.287 654.568 306.663 655.112 307.751 656.2C308.903 657.288 309.479 658.632 309.479 660.232C309.479 661.832 308.903 663.176 307.751 664.264C306.663 665.352 305.287 665.896 303.623 665.896ZM298.727 674.92H308.615V721H298.727V674.92ZM321.959 674.92H331.367V681.544C333.543 678.792 336.199 676.776 339.335 675.496C342.535 674.152 345.863 673.48 349.319 673.48C355.463 673.48 360.039 675.112 363.047 678.376C366.055 681.64 367.559 686.024 367.559 691.528V721H357.863V692.488C357.863 685 354.279 681.256 347.111 681.256C344.039 681.256 341.159 681.992 338.471 683.464C335.847 684.872 333.575 687.048 331.655 689.992V721H321.959V674.92ZM403.617 743.08C400.481 743.08 397.409 742.824 394.401 742.312C391.457 741.8 388.961 741.064 386.913 740.104V732.136C391.713 734.312 397.281 735.4 403.617 735.4C409.569 735.4 413.889 734.088 416.577 731.464C419.329 728.904 420.705 725 420.705 719.752V714.856C416.481 719.912 410.273 722.44 402.081 722.44C397.409 722.44 393.217 721.416 389.505 719.368C385.793 717.32 382.881 714.44 380.769 710.728C378.657 707.016 377.601 702.76 377.601 697.96C377.601 693.096 378.625 688.84 380.673 685.192C382.785 681.48 385.665 678.6 389.313 676.552C393.025 674.504 397.185 673.48 401.793 673.48C406.081 673.48 409.697 674.12 412.641 675.4C415.649 676.616 418.433 678.664 420.993 681.544V674.92H430.401V718.696C430.401 726.568 428.193 732.584 423.777 736.744C419.425 740.968 412.705 743.08 403.617 743.08ZM404.001 714.76C407.969 714.76 411.457 713.704 414.465 711.592C417.537 709.48 419.617 706.664 420.705 703.144V692.776C419.489 689.192 417.377 686.376 414.369 684.328C411.425 682.28 407.969 681.256 404.001 681.256C400.865 681.256 398.017 681.96 395.457 683.368C392.961 684.712 390.977 686.664 389.505 689.224C388.097 691.784 387.393 694.696 387.393 697.96C387.393 701.288 388.097 704.232 389.505 706.792C390.977 709.288 392.961 711.24 395.457 712.648C398.017 714.056 400.865 714.76 404.001 714.76ZM488.22 740.008C484.764 740.008 481.884 739.656 479.58 738.952V731.368C481.244 732.008 483.292 732.328 485.724 732.328C487.964 732.328 489.724 731.752 491.004 730.6C492.284 729.512 493.436 727.72 494.46 725.224L496.668 719.848L476.508 674.92H486.492L501.852 710.344L516.156 674.92H526.14L505.404 726.184C503.484 730.984 501.18 734.472 498.492 736.648C495.868 738.888 492.444 740.008 488.22 740.008ZM552.778 722.44C547.594 722.44 543.018 721.48 539.05 719.56C535.146 717.576 532.074 714.76 529.834 711.112C527.658 707.4 526.57 703.048 526.57 698.056C526.57 693.128 527.658 688.808 529.834 685.096C532.01 681.384 535.082 678.536 539.05 676.552C543.018 674.504 547.594 673.48 552.778 673.48C557.962 673.48 562.538 674.504 566.506 676.552C570.474 678.536 573.546 681.384 575.722 685.096C577.962 688.808 579.082 693.128 579.082 698.056C579.082 703.048 577.962 707.4 575.722 711.112C573.546 714.76 570.474 717.576 566.506 719.56C562.538 721.48 557.962 722.44 552.778 722.44ZM552.778 714.76C557.77 714.76 561.738 713.224 564.682 710.152C567.626 707.08 569.098 703.048 569.098 698.056C569.098 692.872 567.626 688.776 564.682 685.768C561.738 682.76 557.77 681.256 552.778 681.256C547.786 681.256 543.818 682.76 540.874 685.768C537.93 688.776 536.458 692.872 536.458 698.056C536.458 703.048 537.93 707.08 540.874 710.152C543.818 713.224 547.786 714.76 552.778 714.76ZM607.951 722.44C601.743 722.44 597.039 720.776 593.839 717.448C590.703 714.12 589.135 709.672 589.135 704.104V674.92H598.831V703.72C598.831 711.08 602.511 714.76 609.871 714.76C616.335 714.76 621.391 711.848 625.039 706.024V674.92H634.735V721H625.327V714.472C623.151 717.224 620.559 719.24 617.551 720.52C614.607 721.8 611.407 722.44 607.951 722.44ZM647.178 674.92H656.586V683.176C658.506 680.36 661.194 678.28 664.65 676.936C668.17 675.592 672.234 674.92 676.842 674.92V682.504C671.914 682.504 667.69 683.304 664.17 684.904C660.65 686.504 658.218 689.032 656.874 692.488V721H647.178V674.92Z" fill="url(#paint5_linear_13_2)"/>
<path d="M102.904 784.896C101.304 784.896 99.96 784.352 98.872 783.264C97.784 782.176 97.24 780.832 97.24 779.232C97.24 777.632 97.784 776.288 98.872 775.2C99.96 774.112 101.304 773.568 102.904 773.568C104.568 773.568 105.944 774.112 107.032 775.2C108.184 776.288 108.76 777.632 108.76 779.232C108.76 780.832 108.184 782.176 107.032 783.264C105.944 784.352 104.568 784.896 102.904 784.896ZM98.008 793.92H107.896V840H98.008V793.92ZM143.512 841.44C138.904 841.44 134.744 840.448 131.032 838.464C127.384 836.416 124.504 833.568 122.392 829.92C120.344 826.208 119.32 821.92 119.32 817.056C119.32 812.256 120.344 808 122.392 804.288C124.504 800.576 127.384 797.696 131.032 795.648C134.744 793.536 138.904 792.48 143.512 792.48C151.832 792.48 158.136 795.008 162.424 800.064V769.056H172.12V840H162.712V833.28C160.152 836.096 157.336 838.176 154.264 839.52C151.256 840.8 147.672 841.44 143.512 841.44ZM145.72 833.76C149.688 833.76 153.144 832.736 156.088 830.688C159.096 828.576 161.208 825.76 162.424 822.24V811.872C161.336 808.352 159.256 805.536 156.184 803.424C153.176 801.312 149.688 800.256 145.72 800.256C142.584 800.256 139.736 800.96 137.176 802.368C134.68 803.776 132.696 805.76 131.224 808.32C129.816 810.88 129.112 813.792 129.112 817.056C129.112 820.32 129.816 823.232 131.224 825.792C132.696 828.352 134.68 830.336 137.176 831.744C139.736 833.088 142.584 833.76 145.72 833.76ZM209.959 841.44C201.447 841.44 194.759 839.328 189.895 835.104C185.095 830.816 182.695 824.8 182.695 817.056C182.695 809.504 184.839 803.52 189.127 799.104C193.479 794.688 199.655 792.48 207.655 792.48C212.967 792.48 217.479 793.504 221.191 795.552C224.903 797.536 227.687 800.32 229.543 803.904C231.463 807.424 232.423 811.456 232.423 816V820.8H191.911C192.231 825.152 194.055 828.416 197.383 830.592C200.775 832.704 205.351 833.76 211.111 833.76C214.055 833.76 217.031 833.504 220.039 832.992C223.047 832.416 225.703 831.68 228.007 830.784V838.56C225.959 839.392 223.239 840.064 219.847 840.576C216.519 841.152 213.223 841.44 209.959 841.44ZM223.303 813.984C223.175 809.632 221.735 806.272 218.983 803.904C216.295 801.472 212.455 800.256 207.463 800.256C202.599 800.256 198.823 801.504 196.135 804C193.447 806.496 192.039 809.824 191.911 813.984H223.303ZM259.533 841.44C253.965 841.44 249.485 840.032 246.093 837.216C242.765 834.336 241.101 830.464 241.101 825.6C241.101 820.48 242.701 816.544 245.901 813.792C249.165 810.976 253.773 809.568 259.725 809.568C266.061 809.568 271.437 810.848 275.853 813.408V811.008C275.853 807.36 274.733 804.672 272.493 802.944C270.317 801.152 266.861 800.256 262.125 800.256C259.309 800.256 256.557 800.544 253.869 801.12C251.245 801.632 248.877 802.368 246.765 803.328V795.456C248.685 794.56 251.181 793.856 254.253 793.344C257.325 792.768 260.301 792.48 263.181 792.48C270.797 792.48 276.429 794.176 280.077 797.568C283.789 800.896 285.645 805.536 285.645 811.488V840H276.525V834.816C274.541 836.992 272.173 838.656 269.421 839.808C266.733 840.896 263.437 841.44 259.533 841.44ZM261.933 834.048C265.005 834.048 267.789 833.44 270.285 832.224C272.781 831.008 274.637 829.312 275.853 827.136V820.896C271.693 818.208 267.053 816.864 261.933 816.864C258.221 816.864 255.437 817.6 253.581 819.072C251.789 820.48 250.893 822.656 250.893 825.6C250.893 831.232 254.573 834.048 261.933 834.048ZM313.263 841.44C310.063 841.44 306.671 841.024 303.087 840.192C299.503 839.424 296.687 838.368 294.639 837.024V828.768C297.135 830.24 300.015 831.456 303.279 832.416C306.543 833.312 309.711 833.76 312.783 833.76C316.239 833.76 318.767 833.344 320.367 832.512C321.967 831.68 322.767 830.336 322.767 828.48C322.767 827.072 322.383 825.952 321.615 825.12C320.911 824.224 319.663 823.424 317.871 822.72C316.143 822.016 313.519 821.184 309.999 820.224C306.223 819.136 303.215 818.048 300.975 816.96C298.799 815.808 297.135 814.368 295.983 812.64C294.895 810.912 294.351 808.672 294.351 805.92C294.351 801.504 296.079 798.176 299.535 795.936C303.055 793.632 307.759 792.48 313.647 792.48C316.719 792.48 319.727 792.768 322.671 793.344C325.615 793.92 327.983 794.72 329.775 795.744V803.808C327.919 802.72 325.615 801.856 322.863 801.216C320.175 800.576 317.423 800.256 314.607 800.256C311.215 800.256 308.623 800.672 306.831 801.504C305.039 802.336 304.143 803.808 304.143 805.92C304.143 807.264 304.527 808.352 305.295 809.184C306.063 810.016 307.279 810.752 308.943 811.392C310.671 811.968 313.391 812.736 317.103 813.696C322.927 815.296 326.959 817.184 329.199 819.36C331.503 821.536 332.655 824.544 332.655 828.384C332.655 832.352 331.023 835.52 327.759 837.888C324.495 840.256 319.663 841.44 313.263 841.44Z" fill="url(#paint6_linear_13_2)"/>
<path d="M102.904 896.896C101.304 896.896 99.96 896.352 98.872 895.264C97.784 894.176 97.24 892.832 97.24 891.232C97.24 889.632 97.784 888.288 98.872 887.2C99.96 886.112 101.304 885.568 102.904 885.568C104.568 885.568 105.944 886.112 107.032 887.2C108.184 888.288 108.76 889.632 108.76 891.232C108.76 892.832 108.184 894.176 107.032 895.264C105.944 896.352 104.568 896.896 102.904 896.896ZM98.008 905.92H107.896V952H98.008V905.92ZM121.24 905.92H130.648V912.544C132.824 909.792 135.48 907.776 138.616 906.496C141.816 905.152 145.144 904.48 148.6 904.48C154.744 904.48 159.32 906.112 162.328 909.376C165.336 912.64 166.84 917.024 166.84 922.528V952H157.144V923.488C157.144 916 153.56 912.256 146.392 912.256C143.32 912.256 140.44 912.992 137.752 914.464C135.128 915.872 132.856 918.048 130.936 920.992V952H121.24V905.92ZM196.562 953.44C191.891 953.44 188.275 952.096 185.715 949.408C183.219 946.72 181.971 942.912 181.971 937.984V913.408H174.963V905.92H181.971V892.096H191.763V905.92H203.091V913.408H191.763V937.312C191.763 940.384 192.339 942.56 193.491 943.84C194.707 945.12 196.883 945.76 200.019 945.76C201.875 945.76 203.731 945.344 205.587 944.512V952.192C203.155 953.024 200.147 953.44 196.562 953.44ZM238.528 953.44C233.344 953.44 228.768 952.48 224.8 950.56C220.896 948.576 217.824 945.76 215.584 942.112C213.408 938.4 212.32 934.048 212.32 929.056C212.32 924.128 213.408 919.808 215.584 916.096C217.76 912.384 220.832 909.536 224.8 907.552C228.768 905.504 233.344 904.48 238.528 904.48C243.712 904.48 248.288 905.504 252.256 907.552C256.224 909.536 259.296 912.384 261.472 916.096C263.712 919.808 264.832 924.128 264.832 929.056C264.832 934.048 263.712 938.4 261.472 942.112C259.296 945.76 256.224 948.576 252.256 950.56C248.288 952.48 243.712 953.44 238.528 953.44ZM238.528 945.76C243.52 945.76 247.488 944.224 250.432 941.152C253.376 938.08 254.848 934.048 254.848 929.056C254.848 923.872 253.376 919.776 250.432 916.768C247.488 913.76 243.52 912.256 238.528 912.256C233.536 912.256 229.568 913.76 226.624 916.768C223.68 919.776 222.208 923.872 222.208 929.056C222.208 934.048 223.68 938.08 226.624 941.152C229.568 944.224 233.536 945.76 238.528 945.76ZM333.168 953.44C328.56 953.44 324.4 952.448 320.688 950.464C317.04 948.416 314.16 945.568 312.048 941.92C310 938.208 308.976 933.92 308.976 929.056C308.976 924.256 310 920 312.048 916.288C314.16 912.576 317.04 909.696 320.688 907.648C324.4 905.536 328.56 904.48 333.168 904.48C341.488 904.48 347.792 907.008 352.08 912.064V881.056H361.776V952H352.368V945.28C349.808 948.096 346.992 950.176 343.92 951.52C340.912 952.8 337.328 953.44 333.168 953.44ZM335.376 945.76C339.344 945.76 342.8 944.736 345.744 942.688C348.752 940.576 350.864 937.76 352.08 934.24V923.872C350.992 920.352 348.912 917.536 345.84 915.424C342.832 913.312 339.344 912.256 335.376 912.256C332.24 912.256 329.392 912.96 326.832 914.368C324.336 915.776 322.352 917.76 320.88 920.32C319.472 922.88 318.768 925.792 318.768 929.056C318.768 932.32 319.472 935.232 320.88 937.792C322.352 940.352 324.336 942.336 326.832 943.744C329.392 945.088 332.24 945.76 335.376 945.76ZM379.935 896.896C378.335 896.896 376.991 896.352 375.903 895.264C374.815 894.176 374.271 892.832 374.271 891.232C374.271 889.632 374.815 888.288 375.903 887.2C376.991 886.112 378.335 885.568 379.935 885.568C381.599 885.568 382.975 886.112 384.063 887.2C385.215 888.288 385.791 889.632 385.791 891.232C385.791 892.832 385.215 894.176 384.063 895.264C382.975 896.352 381.599 896.896 379.935 896.896ZM375.039 905.92H384.927V952H375.039V905.92ZM422.367 974.08C419.231 974.08 416.159 973.824 413.151 973.312C410.207 972.8 407.711 972.064 405.663 971.104V963.136C410.463 965.312 416.031 966.4 422.367 966.4C428.319 966.4 432.639 965.088 435.327 962.464C438.079 959.904 439.455 956 439.455 950.752V945.856C435.231 950.912 429.023 953.44 420.831 953.44C416.159 953.44 411.967 952.416 408.255 950.368C404.543 948.32 401.631 945.44 399.519 941.728C397.407 938.016 396.351 933.76 396.351 928.96C396.351 924.096 397.375 919.84 399.423 916.192C401.535 912.48 404.415 909.6 408.063 907.552C411.775 905.504 415.935 904.48 420.543 904.48C424.831 904.48 428.447 905.12 431.391 906.4C434.399 907.616 437.183 909.664 439.743 912.544V905.92H449.151V949.696C449.151 957.568 446.943 963.584 442.527 967.744C438.175 971.968 431.455 974.08 422.367 974.08ZM422.751 945.76C426.719 945.76 430.207 944.704 433.215 942.592C436.287 940.48 438.367 937.664 439.455 934.144V923.776C438.239 920.192 436.127 917.376 433.119 915.328C430.175 913.28 426.719 912.256 422.751 912.256C419.615 912.256 416.767 912.96 414.207 914.368C411.711 915.712 409.727 917.664 408.255 920.224C406.847 922.784 406.143 925.696 406.143 928.96C406.143 932.288 406.847 935.232 408.255 937.792C409.727 940.288 411.711 942.24 414.207 943.648C416.767 945.056 419.615 945.76 422.751 945.76ZM467.31 896.896C465.71 896.896 464.366 896.352 463.278 895.264C462.19 894.176 461.646 892.832 461.646 891.232C461.646 889.632 462.19 888.288 463.278 887.2C464.366 886.112 465.71 885.568 467.31 885.568C468.974 885.568 470.35 886.112 471.438 887.2C472.59 888.288 473.166 889.632 473.166 891.232C473.166 892.832 472.59 894.176 471.438 895.264C470.35 896.352 468.974 896.896 467.31 896.896ZM462.414 905.92H472.302V952H462.414V905.92ZM503.406 953.44C498.734 953.44 495.118 952.096 492.558 949.408C490.062 946.72 488.814 942.912 488.814 937.984V913.408H481.806V905.92H488.814V892.096H498.606V905.92H509.934V913.408H498.606V937.312C498.606 940.384 499.182 942.56 500.334 943.84C501.55 945.12 503.726 945.76 506.862 945.76C508.718 945.76 510.574 945.344 512.43 944.512V952.192C509.998 953.024 506.99 953.44 503.406 953.44ZM536.658 953.44C531.09 953.44 526.61 952.032 523.218 949.216C519.89 946.336 518.226 942.464 518.226 937.6C518.226 932.48 519.826 928.544 523.026 925.792C526.29 922.976 530.898 921.568 536.85 921.568C543.186 921.568 548.562 922.848 552.978 925.408V923.008C552.978 919.36 551.858 916.672 549.618 914.944C547.442 913.152 543.986 912.256 539.25 912.256C536.434 912.256 533.682 912.544 530.994 913.12C528.37 913.632 526.002 914.368 523.89 915.328V907.456C525.81 906.56 528.306 905.856 531.378 905.344C534.45 904.768 537.426 904.48 540.306 904.48C547.922 904.48 553.554 906.176 557.202 909.568C560.914 912.896 562.77 917.536 562.77 923.488V952H553.65V946.816C551.666 948.992 549.298 950.656 546.546 951.808C543.858 952.896 540.562 953.44 536.658 953.44ZM539.058 946.048C542.13 946.048 544.914 945.44 547.41 944.224C549.906 943.008 551.762 941.312 552.978 939.136V932.896C548.818 930.208 544.178 928.864 539.058 928.864C535.346 928.864 532.562 929.6 530.706 931.072C528.914 932.48 528.018 934.656 528.018 937.6C528.018 943.232 531.698 946.048 539.058 946.048ZM574.803 881.056H584.499V952H574.803V881.056Z" fill="url(#paint7_linear_13_2)"/>
<path d="M389.24 1017.92H398.648V1026.18C400.568 1023.36 403.256 1021.28 406.712 1019.94C410.232 1018.59 414.296 1017.92 418.904 1017.92V1025.5C413.976 1025.5 409.752 1026.3 406.232 1027.9C402.712 1029.5 400.28 1032.03 398.936 1035.49V1064H389.24V1017.92ZM450.022 1065.44C441.51 1065.44 434.822 1063.33 429.958 1059.1C425.158 1054.82 422.758 1048.8 422.758 1041.06C422.758 1033.5 424.902 1027.52 429.19 1023.1C433.542 1018.69 439.718 1016.48 447.718 1016.48C453.03 1016.48 457.542 1017.5 461.254 1019.55C464.966 1021.54 467.75 1024.32 469.606 1027.9C471.526 1031.42 472.486 1035.46 472.486 1040V1044.8H431.974C432.294 1049.15 434.118 1052.42 437.446 1054.59C440.838 1056.7 445.414 1057.76 451.174 1057.76C454.118 1057.76 457.094 1057.5 460.102 1056.99C463.11 1056.42 465.766 1055.68 468.07 1054.78V1062.56C466.022 1063.39 463.302 1064.06 459.91 1064.58C456.582 1065.15 453.286 1065.44 450.022 1065.44ZM463.366 1037.98C463.238 1033.63 461.798 1030.27 459.046 1027.9C456.358 1025.47 452.518 1024.26 447.526 1024.26C442.662 1024.26 438.886 1025.5 436.198 1028C433.51 1030.5 432.102 1033.82 431.974 1037.98H463.366ZM499.596 1065.44C494.028 1065.44 489.548 1064.03 486.156 1061.22C482.828 1058.34 481.164 1054.46 481.164 1049.6C481.164 1044.48 482.764 1040.54 485.964 1037.79C489.228 1034.98 493.836 1033.57 499.788 1033.57C506.124 1033.57 511.5 1034.85 515.916 1037.41V1035.01C515.916 1031.36 514.796 1028.67 512.556 1026.94C510.38 1025.15 506.924 1024.26 502.188 1024.26C499.372 1024.26 496.62 1024.54 493.932 1025.12C491.308 1025.63 488.94 1026.37 486.828 1027.33V1019.46C488.748 1018.56 491.244 1017.86 494.316 1017.34C497.388 1016.77 500.364 1016.48 503.244 1016.48C510.86 1016.48 516.492 1018.18 520.14 1021.57C523.852 1024.9 525.708 1029.54 525.708 1035.49V1064H516.588V1058.82C514.604 1060.99 512.236 1062.66 509.484 1063.81C506.796 1064.9 503.5 1065.44 499.596 1065.44ZM501.996 1058.05C505.068 1058.05 507.852 1057.44 510.348 1056.22C512.844 1055.01 514.7 1053.31 515.916 1051.14V1044.9C511.756 1042.21 507.116 1040.86 501.996 1040.86C498.284 1040.86 495.5 1041.6 493.644 1043.07C491.852 1044.48 490.956 1046.66 490.956 1049.6C490.956 1055.23 494.636 1058.05 501.996 1058.05ZM537.74 993.056H547.436V1064H537.74V993.056ZM565.623 1008.9C564.023 1008.9 562.679 1008.35 561.591 1007.26C560.503 1006.18 559.959 1004.83 559.959 1003.23C559.959 1001.63 560.503 1000.29 561.591 999.2C562.679 998.112 564.023 997.568 565.623 997.568C567.287 997.568 568.663 998.112 569.751 999.2C570.903 1000.29 571.479 1001.63 571.479 1003.23C571.479 1004.83 570.903 1006.18 569.751 1007.26C568.663 1008.35 567.287 1008.9 565.623 1008.9ZM560.727 1017.92H570.615V1064H560.727V1017.92ZM601.719 1065.44C597.047 1065.44 593.431 1064.1 590.871 1061.41C588.375 1058.72 587.127 1054.91 587.127 1049.98V1025.41H580.119V1017.92H587.127V1004.1H596.919V1017.92H608.247V1025.41H596.919V1049.31C596.919 1052.38 597.495 1054.56 598.647 1055.84C599.863 1057.12 602.039 1057.76 605.175 1057.76C607.031 1057.76 608.887 1057.34 610.743 1056.51V1064.19C608.311 1065.02 605.303 1065.44 601.719 1065.44ZM625.813 1083.01C622.357 1083.01 619.477 1082.66 617.173 1081.95V1074.37C618.837 1075.01 620.885 1075.33 623.317 1075.33C625.557 1075.33 627.317 1074.75 628.597 1073.6C629.877 1072.51 631.029 1070.72 632.053 1068.22L634.261 1062.85L614.101 1017.92H624.085L639.445 1053.34L653.749 1017.92H663.733L642.997 1069.18C641.077 1073.98 638.773 1077.47 636.085 1079.65C633.461 1081.89 630.037 1083.01 625.813 1083.01Z" fill="url(#paint8_linear_13_2)"/>
<g filter="url(#filter17_d_13_2)">
<path d="M382.203 808.27C381.87 807.83 381.955 807.203 382.395 806.869L389.564 801.428C390.004 801.094 390.631 801.18 390.965 801.62C391.299 802.059 391.213 802.687 390.773 803.021L384.401 807.857L389.238 814.23C389.572 814.67 389.486 815.297 389.046 815.631C388.606 815.965 387.979 815.879 387.645 815.439L382.203 808.27ZM729.785 762.905C668.91 791.525 619.338 808.068 566.377 814.897C513.425 821.724 457.143 818.832 382.864 808.656L383.136 806.675C457.342 816.84 513.423 819.708 566.121 812.913C618.809 806.12 668.174 789.661 728.934 761.095L729.785 762.905Z" fill="white"/>
</g>
<g filter="url(#filter18_d_13_2)">
<path d="M353.94 1040.5C354.331 1040.89 354.331 1041.52 353.94 1041.91L347.576 1048.28C347.186 1048.67 346.553 1048.67 346.162 1048.28C345.772 1047.89 345.772 1047.25 346.162 1046.86L351.819 1041.21L346.162 1035.55C345.772 1035.16 345.772 1034.53 346.162 1034.13C346.553 1033.74 347.186 1033.74 347.576 1034.13L353.94 1040.5ZM93.12 992.215C108.226 1004.15 128.905 1013.15 152.27 1019.91C175.623 1026.67 201.596 1031.18 227.239 1034.19C278.527 1040.2 328.408 1040.21 353.233 1040.21L353.233 1042.21C328.408 1042.21 278.422 1042.21 227.006 1036.17C201.297 1033.16 175.208 1028.63 151.714 1021.83C128.23 1015.03 107.274 1005.95 91.88 993.785L93.12 992.215Z" fill="white"/>
</g>
<defs>
<filter id="filter0_dd_13_2" x="1071.07" y="528.837" width="1572.78" height="1223.84" filterUnits="userSpaceOnUse" color-interpolation-filters="sRGB">
<feFlood flood-opacity="0" result="BackgroundImageFix"/>
<feColorMatrix in="SourceAlpha" type="matrix" values="0 0 0 0 0 0 0 0 0 0 0 0 0 0 0 0 0 0 127 0" result="hardAlpha"/>
<feOffset dy="96"/>
<feGaussianBlur stdDeviation="50"/>
<feComposite in2="hardAlpha" operator="out"/>
<feColorMatrix type="matrix" values="0 0 0 0 0.102938 0 0 0 0 0.913021 0 0 0 0 0.524181 0 0 0 0.32 0"/>
<feBlend mode="normal" in2="BackgroundImageFix" result="effect1_dropShadow_13_2"/>
<feColorMatrix in="SourceAlpha" type="matrix" values="0 0 0 0 0 0 0 0 0 0 0 0 0 0 0 0 0 0 127 0" result="hardAlpha"/>
<feOffset/>
<feGaussianBlur stdDeviation="8.2"/>
<feComposite in2="hardAlpha" operator="out"/>
<feColorMatrix type="matrix" values="0 0 0 0 1 0 0 0 0 1 0 0 0 0 1 0 0 0 1 0"/>
<feBlend mode="normal" in2="effect1_dropShadow_13_2" result="effect2_dropShadow_13_2"/>
<feBlend mode="normal" in="SourceGraphic" in2="effect2_dropShadow_13_2" result="shape"/>
</filter>
<filter id="filter1_f_13_2" x="1124.07" y="416.237" width="1412.78" height="1051.44" filterUnits="userSpaceOnUse" color-interpolation-filters="sRGB">
<feFlood flood-opacity="0" result="BackgroundImageFix"/>
<feBlend mode="normal" in="SourceGraphic" in2="BackgroundImageFix" result="shape"/>
<feGaussianBlur stdDeviation="10" result="effect1_foregroundBlur_13_2"/>
</filter>
<filter id="filter2_f_13_2" x="1095.07" y="272.237" width="1412.78" height="1051.44" filterUnits="userSpaceOnUse" color-interpolation-filters="sRGB">
<feFlood flood-opacity="0" result="BackgroundImageFix"/>
<feBlend mode="normal" in="SourceGraphic" in2="BackgroundImageFix" result="shape"/>
<feGaussianBlur stdDeviation="10" result="effect1_foregroundBlur_13_2"/>
</filter>
<filter id="filter3_d_13_2" x="1293.84" y="818.453" width="630.707" height="342.439" filterUnits="userSpaceOnUse" color-interpolation-filters="sRGB">
<feFlood flood-opacity="0" result="BackgroundImageFix"/>
<feColorMatrix in="SourceAlpha" type="matrix" values="0 0 0 0 0 0 0 0 0 0 0 0 0 0 0 0 0 0 127 0" result="hardAlpha"/>
<feOffset dy="16"/>
<feGaussianBlur stdDeviation="2.25"/>
<feComposite in2="hardAlpha" operator="out"/>
<feColorMatrix type="matrix" values="0 0 0 0 1 0 0 0 0 1 0 0 0 0 1 0 0 0 0.25 0"/>
<feBlend mode="normal" in2="BackgroundImageFix" result="effect1_dropShadow_13_2"/>
<feBlend mode="normal" in="SourceGraphic" in2="effect1_dropShadow_13_2" result="shape"/>
</filter>
<filter id="filter4_df_13_2" x="1900.57" y="317.125" width="529.865" height="230.282" filterUnits="userSpaceOnUse" color-interpolation-filters="sRGB">
<feFlood flood-opacity="0" result="BackgroundImageFix"/>
<feColorMatrix in="SourceAlpha" type="matrix" values="0 0 0 0 0 0 0 0 0 0 0 0 0 0 0 0 0 0 127 0" result="hardAlpha"/>
<feOffset dy="16"/>
<feGaussianBlur stdDeviation="7.4"/>
<feComposite in2="hardAlpha" operator="out"/>
<feColorMatrix type="matrix" values="0 0 0 0 0.102938 0 0 0 0 0.913021 0 0 0 0 0.524181 0 0 0 0.43 0"/>
<feBlend mode="normal" in2="BackgroundImageFix" result="effect1_dropShadow_13_2"/>
<feBlend mode="normal" in="SourceGraphic" in2="effect1_dropShadow_13_2" result="shape"/>
<feGaussianBlur stdDeviation="1.25" result="effect2_foregroundBlur_13_2"/>
</filter>
<filter id="filter5_d_13_2" x="1755.91" y="429.9" width="560.035" height="502.78" filterUnits="userSpaceOnUse" color-interpolation-filters="sRGB">
<feFlood flood-opacity="0" result="BackgroundImageFix"/>
<feColorMatrix in="SourceAlpha" type="matrix" values="0 0 0 0 0 0 0 0 0 0 0 0 0 0 0 0 0 0 127 0" result="hardAlpha"/>
<feOffset dy="16"/>
<feGaussianBlur stdDeviation="2.25"/>
<feComposite in2="hardAlpha" operator="out"/>
<feColorMatrix type="matrix" values="0 0 0 0 1 0 0 0 0 1 0 0 0 0 1 0 0 0 0.25 0"/>
<feBlend mode="normal" in2="BackgroundImageFix" result="effect1_dropShadow_13_2"/>
<feBlend mode="normal" in="SourceGraphic" in2="effect1_dropShadow_13_2" result="shape"/>
</filter>
<filter id="filter6_d_13_2" x="1524.08" y="582.001" width="418.347" height="282.633" filterUnits="userSpaceOnUse" color-interpolation-filters="sRGB">
<feFlood flood-opacity="0" result="BackgroundImageFix"/>
<feColorMatrix in="SourceAlpha" type="matrix" values="0 0 0 0 0 0 0 0 0 0 0 0 0 0 0 0 0 0 127 0" result="hardAlpha"/>
<feOffset dy="16"/>
<feGaussianBlur stdDeviation="2.25"/>
<feComposite in2="hardAlpha" operator="out"/>
<feColorMatrix type="matrix" values="0 0 0 0 1 0 0 0 0 1 0 0 0 0 1 0 0 0 0.25 0"/>
<feBlend mode="normal" in2="BackgroundImageFix" result="effect1_dropShadow_13_2"/>
<feBlend mode="normal" in="SourceGraphic" in2="effect1_dropShadow_13_2" result="shape"/>
</filter>
<filter id="filter7_f_13_2" x="1179.3" y="1059.03" width="511.855" height="195.901" filterUnits="userSpaceOnUse" color-interpolation-filters="sRGB">
<feFlood flood-opacity="0" result="BackgroundImageFix"/>
<feBlend mode="normal" in="SourceGraphic" in2="BackgroundImageFix" result="shape"/>
<feGaussianBlur stdDeviation="2" result="effect1_foregroundBlur_13_2"/>
</filter>
<filter id="filter8_df_13_2" x="1217.86" y="1082.68" width="119.015" height="240.555" filterUnits="userSpaceOnUse" color-interpolation-filters="sRGB">
<feFlood flood-opacity="0" result="BackgroundImageFix"/>
<feColorMatrix in="SourceAlpha" type="matrix" values="0 0 0 0 0 0 0 0 0 0 0 0 0 0 0 0 0 0 127 0" result="hardAlpha"/>
<feOffset dy="169"/>
<feGaussianBlur stdDeviation="5.3"/>
<feComposite in2="hardAlpha" operator="out"/>
<feColorMatrix type="matrix" values="0 0 0 0 0.102938 0 0 0 0 0.913021 0 0 0 0 0.524181 0 0 0 0.46 0"/>
<feBlend mode="normal" in2="BackgroundImageFix" result="effect1_dropShadow_13_2"/>
<feBlend mode="normal" in="SourceGraphic" in2="effect1_dropShadow_13_2" result="shape"/>
<feGaussianBlur stdDeviation="0.95" result="effect2_foregroundBlur_13_2"/>
</filter>
<filter id="filter9_df_13_2" x="1294.86" y="1102.68" width="119.015" height="240.555" filterUnits="userSpaceOnUse" color-interpolation-filters="sRGB">
<feFlood flood-opacity="0" result="BackgroundImageFix"/>
<feColorMatrix in="SourceAlpha" type="matrix" values="0 0 0 0 0 0 0 0 0 0 0 0 0 0 0 0 0 0 127 0" result="hardAlpha"/>
<feOffset dy="169"/>
<feGaussianBlur stdDeviation="5.3"/>
<feComposite in2="hardAlpha" operator="out"/>
<feColorMatrix type="matrix" values="0 0 0 0 0.102938 0 0 0 0 0.913021 0 0 0 0 0.524181 0 0 0 0.46 0"/>
<feBlend mode="normal" in2="BackgroundImageFix" result="effect1_dropShadow_13_2"/>
<feBlend mode="normal" in="SourceGraphic" in2="effect1_dropShadow_13_2" result="shape"/>
<feGaussianBlur stdDeviation="0.95" result="effect2_foregroundBlur_13_2"/>
</filter>
<filter id="filter10_df_13_2" x="1449.86" y="1143.68" width="119.015" height="240.555" filterUnits="userSpaceOnUse" color-interpolation-filters="sRGB">
<feFlood flood-opacity="0" result="BackgroundImageFix"/>
<feColorMatrix in="SourceAlpha" type="matrix" values="0 0 0 0 0 0 0 0 0 0 0 0 0 0 0 0 0 0 127 0" result="hardAlpha"/>
<feOffset dy="169"/>
<feGaussianBlur stdDeviation="5.3"/>
<feComposite in2="hardAlpha" operator="out"/>
<feColorMatrix type="matrix" values="0 0 0 0 0.102938 0 0 0 0 0.913021 0 0 0 0 0.524181 0 0 0 0.46 0"/>
<feBlend mode="normal" in2="BackgroundImageFix" result="effect1_dropShadow_13_2"/>
<feBlend mode="normal" in="SourceGraphic" in2="effect1_dropShadow_13_2" result="shape"/>
<feGaussianBlur stdDeviation="0.95" result="effect2_foregroundBlur_13_2"/>
</filter>
<filter id="filter11_f_13_2" x="1643.57" y="608.676" width="152.595" height="91.8639" filterUnits="userSpaceOnUse" color-interpolation-filters="sRGB">
<feFlood flood-opacity="0" result="BackgroundImageFix"/>
<feBlend mode="normal" in="SourceGraphic" in2="BackgroundImageFix" result="shape"/>
<feGaussianBlur stdDeviation="0.95" result="effect1_foregroundBlur_13_2"/>
</filter>
<filter id="filter12_f_13_2" x="1751.57" y="636.676" width="152.595" height="91.8639" filterUnits="userSpaceOnUse" color-interpolation-filters="sRGB">
<feFlood flood-opacity="0" result="BackgroundImageFix"/>
<feBlend mode="normal" in="SourceGraphic" in2="BackgroundImageFix" result="shape"/>
<feGaussianBlur stdDeviation="0.95" result="effect1_foregroundBlur_13_2"/>
</filter>
<filter id="filter13_f_13_2" x="1669.57" y="720.676" width="152.595" height="91.8639" filterUnits="userSpaceOnUse" color-interpolation-filters="sRGB">
<feFlood flood-opacity="0" result="BackgroundImageFix"/>
<feBlend mode="normal" in="SourceGraphic" in2="BackgroundImageFix" result="shape"/>
<feGaussianBlur stdDeviation="0.95" result="effect1_foregroundBlur_13_2"/>
</filter>
<filter id="filter14_f_13_2" x="1561.57" y="689.676" width="152.595" height="91.8639" filterUnits="userSpaceOnUse" color-interpolation-filters="sRGB">
<feFlood flood-opacity="0" result="BackgroundImageFix"/>
<feBlend mode="normal" in="SourceGraphic" in2="BackgroundImageFix" result="shape"/>
<feGaussianBlur stdDeviation="0.95" result="effect1_foregroundBlur_13_2"/>
</filter>
<filter id="filter15_df_13_2" x="1525.86" y="1163.68" width="119.015" height="240.555" filterUnits="userSpaceOnUse" color-interpolation-filters="sRGB">
<feFlood flood-opacity="0" result="BackgroundImageFix"/>
<feColorMatrix in="SourceAlpha" type="matrix" values="0 0 0 0 0 0 0 0 0 0 0 0 0 0 0 0 0 0 127 0" result="hardAlpha"/>
<feOffset dy="169"/>
<feGaussianBlur stdDeviation="5.3"/>
<feComposite in2="hardAlpha" operator="out"/>
<feColorMatrix type="matrix" values="0 0 0 0 0.102938 0 0 0 0 0.913021 0 0 0 0 0.524181 0 0 0 0.46 0"/>
<feBlend mode="normal" in2="BackgroundImageFix" result="effect1_dropShadow_13_2"/>
<feBlend mode="normal" in="SourceGraphic" in2="effect1_dropShadow_13_2" result="shape"/>
<feGaussianBlur stdDeviation="0.95" result="effect2_foregroundBlur_13_2"/>
</filter>
<filter id="filter16_d_13_2" x="1360.52" y="1089.98" width="155.767" height="399.369" filterUnits="userSpaceOnUse" color-interpolation-filters="sRGB">
<feFlood flood-opacity="0" result="BackgroundImageFix"/>
<feColorMatrix in="SourceAlpha" type="matrix" values="0 0 0 0 0 0 0 0 0 0 0 0 0 0 0 0 0 0 127 0" result="hardAlpha"/>
<feOffset dx="28" dy="321"/>
<feGaussianBlur stdDeviation="2.95"/>
<feComposite in2="hardAlpha" operator="out"/>
<feColorMatrix type="matrix" values="0 0 0 0 0 0 0 0 0 0 0 0 0 0 0 0 0 0 0.25 0"/>
<feBlend mode="normal" in2="BackgroundImageFix" result="effect1_dropShadow_13_2"/>
<feBlend mode="normal" in="SourceGraphic" in2="effect1_dropShadow_13_2" result="shape"/>
</filter>
<filter id="filter17_d_13_2" x="371.1" y="750.195" width="369.585" height="79.3117" filterUnits="userSpaceOnUse" color-interpolation-filters="sRGB">
<feFlood flood-opacity="0" result="BackgroundImageFix"/>
<feColorMatrix in="SourceAlpha" type="matrix" values="0 0 0 0 0 0 0 0 0 0 0 0 0 0 0 0 0 0 127 0" result="hardAlpha"/>
<feOffset/>
<feGaussianBlur stdDeviation="5.45"/>
<feComposite in2="hardAlpha" operator="out"/>
<feColorMatrix type="matrix" values="0 0 0 0 0.102938 0 0 0 0 0.913021 0 0 0 0 0.524181 0 0 0 1 0"/>
<feBlend mode="normal" in2="BackgroundImageFix" result="effect1_dropShadow_13_2"/>
<feBlend mode="normal" in="SourceGraphic" in2="effect1_dropShadow_13_2" result="shape"/>
</filter>
<filter id="filter18_d_13_2" x="80.98" y="981.315" width="284.153" height="78.1542" filterUnits="userSpaceOnUse" color-interpolation-filters="sRGB">
<feFlood flood-opacity="0" result="BackgroundImageFix"/>
<feColorMatrix in="SourceAlpha" type="matrix" values="0 0 0 0 0 0 0 0 0 0 0 0 0 0 0 0 0 0 127 0" result="hardAlpha"/>
<feOffset/>
<feGaussianBlur stdDeviation="5.45"/>
<feComposite in2="hardAlpha" operator="out"/>
<feColorMatrix type="matrix" values="0 0 0 0 0.190755 0 0 0 0 0.514453 0 0 0 0 1 0 0 0 1 0"/>
<feBlend mode="normal" in2="BackgroundImageFix" result="effect1_dropShadow_13_2"/>
<feBlend mode="normal" in="SourceGraphic" in2="effect1_dropShadow_13_2" result="shape"/>
</filter>
<linearGradient id="paint0_linear_13_2" x1="2404" y1="337.5" x2="1425" y2="1614.5" gradientUnits="userSpaceOnUse">
<stop stop-color="#1AE986" stop-opacity="0.3"/>
<stop offset="1" stop-color="#3183FF" stop-opacity="0.64"/>
</linearGradient>
<linearGradient id="paint1_linear_13_2" x1="1286" y1="608" x2="1424.5" y2="1166" gradientUnits="userSpaceOnUse">
<stop offset="0.1875" stop-color="white" stop-opacity="0"/>
<stop offset="1" stop-color="white"/>
</linearGradient>
<linearGradient id="paint2_linear_13_2" x1="1592" y1="283" x2="1730.5" y2="841.001" gradientUnits="userSpaceOnUse">
<stop offset="0.1875" stop-color="white" stop-opacity="0"/>
<stop offset="1" stop-color="white"/>
</linearGradient>
<linearGradient id="paint3_linear_13_2" x1="217" y1="-163" x2="1570" y2="477" gradientUnits="userSpaceOnUse">
<stop stop-color="#3183FF"/>
<stop offset="1" stop-color="#1AE986"/>
</linearGradient>
<linearGradient id="paint4_linear_13_2" x1="204" y1="25" x2="1350.5" y2="597" gradientUnits="userSpaceOnUse">
<stop stop-color="#3183FF"/>
<stop offset="1" stop-color="#1AE986"/>
</linearGradient>
<linearGradient id="paint5_linear_13_2" x1="181.538" y1="529.5" x2="712.382" y2="1296.95" gradientUnits="userSpaceOnUse">
<stop stop-color="#3183FF"/>
<stop offset="1" stop-color="#1AE986"/>
</linearGradient>
<linearGradient id="paint6_linear_13_2" x1="118" y1="446" x2="616.838" y2="1332.55" gradientUnits="userSpaceOnUse">
<stop stop-color="#3183FF"/>
<stop offset="1" stop-color="#1AE986"/>
</linearGradient>
<linearGradient id="paint7_linear_13_2" x1="29.0001" y1="451" x2="569.907" y2="1238.95" gradientUnits="userSpaceOnUse">
<stop stop-color="#3183FF"/>
<stop offset="1" stop-color="#1AE986"/>
</linearGradient>
<linearGradient id="paint8_linear_13_2" x1="433.155" y1="496.5" x2="916.18" y2="1153.74" gradientUnits="userSpaceOnUse">
<stop stop-color="#3183FF"/>
<stop offset="1" stop-color="#1AE986"/>
</linearGradient>
</defs>
</svg>
