<svg width="288" height="90" viewBox="0 0 288 90" fill="none" xmlns="http://www.w3.org/2000/svg">
<g filter="url(#filter0_d_26_64)">
<path d="M11.2928 72.3726C10.9023 71.9821 10.9023 71.3489 11.2928 70.9584L17.6567 64.5944C18.0473 64.2039 18.6804 64.2039 19.071 64.5944C19.4615 64.9849 19.4615 65.6181 19.071 66.0086L13.4141 71.6655L19.071 77.3223C19.4615 77.7128 19.4615 78.346 19.071 78.7365C18.6804 79.1271 18.0473 79.1271 17.6567 78.7365L11.2928 72.3726ZM276.2 12.7144C227.375 60.5325 164.967 72.6655 11.9999 72.6655L11.9999 70.6655C165.033 70.6655 226.625 58.4675 274.8 11.2856L276.2 12.7144Z" fill="white"/>
</g>
<defs>
<filter id="filter0_d_26_64" x="0.0998783" y="0.385553" width="287" height="89.5439" filterUnits="userSpaceOnUse" color-interpolation-filters="sRGB">
<feFlood flood-opacity="0" result="BackgroundImageFix"/>
<feColorMatrix in="SourceAlpha" type="matrix" values="0 0 0 0 0 0 0 0 0 0 0 0 0 0 0 0 0 0 127 0" result="hardAlpha"/>
<feOffset/>
<feGaussianBlur stdDeviation="5.45"/>
<feComposite in2="hardAlpha" operator="out"/>
<feColorMatrix type="matrix" values="0 0 0 0 0.102938 0 0 0 0 0.913021 0 0 0 0 0.524181 0 0 0 1 0"/>
<feBlend mode="normal" in2="BackgroundImageFix" result="effect1_dropShadow_26_64"/>
<feBlend mode="normal" in="SourceGraphic" in2="effect1_dropShadow_26_64" result="shape"/>
</filter>
</defs>
</svg>
