<svg width="1573" height="1681" viewBox="0 0 1573 1681" fill="none" xmlns="http://www.w3.org/2000/svg">
<g filter="url(#filter0_dd_26_53)">
<path d="M913.29 498.79C935.368 476.663 967.62 468.08 997.776 476.306L1444.83 598.268C1472.98 605.946 1482.33 641.167 1461.7 661.798L679.534 1443.97C644.265 1479.23 592.804 1492.9 544.683 1479.78L128.098 1366.2C99.9656 1358.53 90.5979 1323.34 111.193 1302.7L913.29 498.79Z" fill="url(#paint0_linear_26_53)" shape-rendering="crispEdges"/>
</g>
<g filter="url(#filter1_f_26_53)">
<path d="M886.29 389.79C908.368 367.663 940.62 359.08 970.776 367.306L1417.83 489.268C1445.98 496.946 1455.33 532.167 1434.7 552.798L652.534 1334.97C617.265 1370.23 565.804 1383.9 517.683 1370.78L101.098 1257.2C72.9656 1249.53 63.5979 1214.34 84.1935 1193.7L886.29 389.79Z" fill="#1AE986" fill-opacity="0.21"/>
</g>
<g filter="url(#filter2_f_26_53)">
<path d="M857.29 245.79C879.368 223.663 911.62 215.08 941.776 223.306L1388.83 345.268C1416.98 352.946 1426.33 388.167 1405.7 408.798L623.534 1190.97C588.265 1226.23 536.804 1239.9 488.683 1226.78L72.0982 1113.2C43.9656 1105.53 34.5979 1070.34 55.1935 1049.7L857.29 245.79Z" fill="#2A2A2A" fill-opacity="0.46"/>
</g>
<g filter="url(#filter3_d_26_53)">
<path d="M375.537 771.78C397.761 749.669 430.163 741.225 460.352 749.676L821.269 850.718C849.066 858.5 858.379 893.211 838.21 913.861L728.197 1026.51C692.937 1062.61 640.878 1076.77 592.19 1063.49L255.366 971.656C227.174 963.97 217.845 928.666 238.561 908.056L375.537 771.78Z" fill="#FFD600" fill-opacity="0.51" shape-rendering="crispEdges"/>
</g>
<g filter="url(#filter4_df_26_53)">
<path d="M869.969 269.755C892.107 249.972 922.805 242.844 951.396 250.848L1320.09 354.065C1345.18 361.091 1353.07 392.78 1334.19 410.746V410.746C1303.03 440.389 1258.65 451.589 1217.16 440.277L872.399 346.275C843.328 338.349 834.606 301.358 857.074 281.279L869.969 269.755Z" fill="#3183FF" fill-opacity="0.69" shape-rendering="crispEdges"/>
</g>
<g filter="url(#filter5_d_26_53)">
<path d="M761.015 382.584C783.088 361.08 814.891 352.858 844.621 360.969L1212.42 461.311C1240.88 469.075 1250.03 504.892 1228.77 525.349L1132.07 618.429L923.476 823.014C907.775 838.413 884.909 843.988 863.883 837.545L770.551 808.943C743.599 800.684 734.706 766.986 754.073 746.503L873.627 620.063C898.618 593.632 886.275 550.092 851.132 540.709L717.629 505.064C689.138 497.457 679.792 461.708 700.915 441.131L761.015 382.584Z" fill="#FF4ED8" fill-opacity="0.56" shape-rendering="crispEdges"/>
</g>
<g filter="url(#filter6_d_26_53)">
<path d="M605.991 535.327C627.972 513.459 659.931 504.941 689.88 512.97L838.748 552.881C867.106 560.484 876.498 596.003 855.604 616.628L738.676 732.053C703.569 766.709 652.724 780.161 605.072 767.401L485.779 735.457C457.477 727.879 448.036 692.476 468.806 671.812L605.991 535.327Z" fill="#4DD4FF" fill-opacity="0.46" shape-rendering="crispEdges"/>
</g>
<g filter="url(#filter7_f_26_53)">
<path d="M199.097 992.695L609.375 1103.92C615.679 1105.63 617.78 1113.51 613.161 1118.13L561.799 1169.49C554.096 1177.2 542.868 1180.21 532.345 1177.39L118.366 1066.56C112.82 1065.08 110.931 1058.16 114.95 1054.07L166.41 1001.58C174.897 992.92 187.397 989.523 199.097 992.695Z" stroke="white"/>
</g>
<g filter="url(#filter8_df_26_53)">
<path d="M186.784 1020C193.146 1013.77 202.252 1011.23 210.919 1013.27L249.095 1022.23C255.181 1023.66 257.35 1031.21 252.952 1035.65L225.55 1063.33C218.418 1070.54 207.948 1073.32 198.178 1070.62L164.061 1061.17C157.376 1059.32 155.21 1050.92 160.166 1046.07L186.784 1020Z" fill="white" fill-opacity="0.33" shape-rendering="crispEdges"/>
</g>
<g filter="url(#filter9_df_26_53)">
<path d="M263.784 1040C270.146 1033.77 279.252 1031.23 287.919 1033.27L326.095 1042.23C332.181 1043.66 334.35 1051.21 329.952 1055.65L302.55 1083.33C295.418 1090.54 284.948 1093.32 275.178 1090.62L241.061 1081.17C234.376 1079.32 232.21 1070.92 237.166 1066.07L263.784 1040Z" fill="white" fill-opacity="0.33" shape-rendering="crispEdges"/>
</g>
<g filter="url(#filter10_df_26_53)">
<path d="M418.784 1081C425.146 1074.77 434.252 1072.23 442.919 1074.27L481.095 1083.23C487.181 1084.66 489.35 1092.21 484.952 1096.65L457.55 1124.33C450.418 1131.54 439.948 1134.32 430.178 1131.62L396.061 1122.17C389.376 1120.32 387.21 1111.92 392.166 1107.07L418.784 1081Z" fill="white" fill-opacity="0.33" shape-rendering="crispEdges"/>
</g>
<g filter="url(#filter11_f_26_53)">
<path d="M625.261 545.991C631.621 539.769 640.721 537.231 649.383 539.264L717.085 555.15C723.173 556.579 725.342 564.127 720.94 568.569L671.625 618.346C664.495 625.543 654.032 628.327 644.268 625.625L581.073 608.14C574.385 606.289 572.219 597.885 577.179 593.032L625.261 545.991Z" fill="white" fill-opacity="0.33"/>
</g>
<g filter="url(#filter12_f_26_53)">
<path d="M733.261 573.991C739.621 567.769 748.721 565.231 757.383 567.264L825.085 583.15C831.173 584.579 833.342 592.127 828.94 596.569L779.625 646.346C772.495 653.543 762.032 656.327 752.268 653.625L689.073 636.14C682.385 634.289 680.219 625.885 685.179 621.032L733.261 573.991Z" fill="white" fill-opacity="0.33"/>
</g>
<g filter="url(#filter13_f_26_53)">
<path d="M651.261 657.991C657.621 651.769 666.721 649.231 675.383 651.264L743.085 667.15C749.173 668.579 751.342 676.127 746.94 680.569L697.625 730.346C690.495 737.543 680.032 740.327 670.268 737.625L607.073 720.14C600.385 718.289 598.219 709.885 603.179 705.032L651.261 657.991Z" fill="white" fill-opacity="0.33"/>
</g>
<g filter="url(#filter14_f_26_53)">
<path d="M543.261 626.991C549.621 620.769 558.721 618.231 567.383 620.264L635.085 636.15C641.173 637.579 643.342 645.127 638.94 649.569L589.625 699.346C582.495 706.543 572.032 709.327 562.268 706.625L499.073 689.14C492.385 687.289 490.219 678.885 495.179 674.032L543.261 626.991Z" fill="white" fill-opacity="0.33"/>
</g>
<g filter="url(#filter15_df_26_53)">
<path d="M494.784 1101C501.146 1094.77 510.252 1092.23 518.919 1094.27L557.095 1103.23C563.181 1104.66 565.35 1112.21 560.952 1116.65L533.55 1144.33C526.418 1151.54 515.948 1154.32 506.178 1151.62L472.061 1142.17C465.376 1140.32 463.21 1131.92 468.166 1127.07L494.784 1101Z" fill="white" fill-opacity="0.33" shape-rendering="crispEdges"/>
</g>
<g filter="url(#filter16_d_26_53)">
<path d="M328.4 1025.6C334.69 1019.31 343.759 1016.67 352.441 1018.61L403.556 1030C411.292 1031.72 414.043 1041.33 408.393 1046.89L372.271 1082.42C365.276 1089.29 355.191 1092.01 345.687 1089.58L296.293 1076.92C289.539 1075.19 287.233 1066.77 292.163 1061.84L328.4 1025.6Z" fill="#9F9F9F"/>
</g>
<path d="M306.5 587L412 1043.5L372.01 1082.71C364.885 1089.7 354.58 1092.37 344.96 1089.71L288 1074L170 615L306.5 587Z" fill="url(#paint1_linear_26_53)" fill-opacity="0.15"/>
<path d="M770 0L866.281 580.104C868.306 592.303 864.424 604.74 855.821 613.623L740.411 732.776C706.031 768.271 654.807 781.779 607.395 767.853L480.746 730.653C468.922 727.18 460.018 717.408 457.657 705.313L339.5 100L770 0Z" fill="url(#paint2_linear_26_53)" fill-opacity="0.15"/>
<defs>
<filter id="filter0_dd_26_53" x="0.0710449" y="456.837" width="1572.78" height="1223.84" filterUnits="userSpaceOnUse" color-interpolation-filters="sRGB">
<feFlood flood-opacity="0" result="BackgroundImageFix"/>
<feColorMatrix in="SourceAlpha" type="matrix" values="0 0 0 0 0 0 0 0 0 0 0 0 0 0 0 0 0 0 127 0" result="hardAlpha"/>
<feOffset dy="96"/>
<feGaussianBlur stdDeviation="50"/>
<feComposite in2="hardAlpha" operator="out"/>
<feColorMatrix type="matrix" values="0 0 0 0 0.102938 0 0 0 0 0.913021 0 0 0 0 0.524181 0 0 0 0.32 0"/>
<feBlend mode="normal" in2="BackgroundImageFix" result="effect1_dropShadow_26_53"/>
<feColorMatrix in="SourceAlpha" type="matrix" values="0 0 0 0 0 0 0 0 0 0 0 0 0 0 0 0 0 0 127 0" result="hardAlpha"/>
<feOffset/>
<feGaussianBlur stdDeviation="8.2"/>
<feComposite in2="hardAlpha" operator="out"/>
<feColorMatrix type="matrix" values="0 0 0 0 1 0 0 0 0 1 0 0 0 0 1 0 0 0 1 0"/>
<feBlend mode="normal" in2="effect1_dropShadow_26_53" result="effect2_dropShadow_26_53"/>
<feBlend mode="normal" in="SourceGraphic" in2="effect2_dropShadow_26_53" result="shape"/>
</filter>
<filter id="filter1_f_26_53" x="53.071" y="344.237" width="1412.78" height="1051.44" filterUnits="userSpaceOnUse" color-interpolation-filters="sRGB">
<feFlood flood-opacity="0" result="BackgroundImageFix"/>
<feBlend mode="normal" in="SourceGraphic" in2="BackgroundImageFix" result="shape"/>
<feGaussianBlur stdDeviation="10" result="effect1_foregroundBlur_26_53"/>
</filter>
<filter id="filter2_f_26_53" x="24.071" y="200.237" width="1412.78" height="1051.44" filterUnits="userSpaceOnUse" color-interpolation-filters="sRGB">
<feFlood flood-opacity="0" result="BackgroundImageFix"/>
<feBlend mode="normal" in="SourceGraphic" in2="BackgroundImageFix" result="shape"/>
<feGaussianBlur stdDeviation="10" result="effect1_foregroundBlur_26_53"/>
</filter>
<filter id="filter3_d_26_53" x="222.839" y="746.453" width="630.707" height="342.439" filterUnits="userSpaceOnUse" color-interpolation-filters="sRGB">
<feFlood flood-opacity="0" result="BackgroundImageFix"/>
<feColorMatrix in="SourceAlpha" type="matrix" values="0 0 0 0 0 0 0 0 0 0 0 0 0 0 0 0 0 0 127 0" result="hardAlpha"/>
<feOffset dy="16"/>
<feGaussianBlur stdDeviation="2.25"/>
<feComposite in2="hardAlpha" operator="out"/>
<feColorMatrix type="matrix" values="0 0 0 0 1 0 0 0 0 1 0 0 0 0 1 0 0 0 0.25 0"/>
<feBlend mode="normal" in2="BackgroundImageFix" result="effect1_dropShadow_26_53"/>
<feBlend mode="normal" in="SourceGraphic" in2="effect1_dropShadow_26_53" result="shape"/>
</filter>
<filter id="filter4_df_26_53" x="829.574" y="245.125" width="529.865" height="230.282" filterUnits="userSpaceOnUse" color-interpolation-filters="sRGB">
<feFlood flood-opacity="0" result="BackgroundImageFix"/>
<feColorMatrix in="SourceAlpha" type="matrix" values="0 0 0 0 0 0 0 0 0 0 0 0 0 0 0 0 0 0 127 0" result="hardAlpha"/>
<feOffset dy="16"/>
<feGaussianBlur stdDeviation="7.4"/>
<feComposite in2="hardAlpha" operator="out"/>
<feColorMatrix type="matrix" values="0 0 0 0 0.102938 0 0 0 0 0.913021 0 0 0 0 0.524181 0 0 0 0.43 0"/>
<feBlend mode="normal" in2="BackgroundImageFix" result="effect1_dropShadow_26_53"/>
<feBlend mode="normal" in="SourceGraphic" in2="effect1_dropShadow_26_53" result="shape"/>
<feGaussianBlur stdDeviation="1.25" result="effect2_foregroundBlur_26_53"/>
</filter>
<filter id="filter5_d_26_53" x="684.908" y="357.9" width="560.035" height="502.78" filterUnits="userSpaceOnUse" color-interpolation-filters="sRGB">
<feFlood flood-opacity="0" result="BackgroundImageFix"/>
<feColorMatrix in="SourceAlpha" type="matrix" values="0 0 0 0 0 0 0 0 0 0 0 0 0 0 0 0 0 0 127 0" result="hardAlpha"/>
<feOffset dy="16"/>
<feGaussianBlur stdDeviation="2.25"/>
<feComposite in2="hardAlpha" operator="out"/>
<feColorMatrix type="matrix" values="0 0 0 0 1 0 0 0 0 1 0 0 0 0 1 0 0 0 0.25 0"/>
<feBlend mode="normal" in2="BackgroundImageFix" result="effect1_dropShadow_26_53"/>
<feBlend mode="normal" in="SourceGraphic" in2="effect1_dropShadow_26_53" result="shape"/>
</filter>
<filter id="filter6_d_26_53" x="453.084" y="510.001" width="418.347" height="282.633" filterUnits="userSpaceOnUse" color-interpolation-filters="sRGB">
<feFlood flood-opacity="0" result="BackgroundImageFix"/>
<feColorMatrix in="SourceAlpha" type="matrix" values="0 0 0 0 0 0 0 0 0 0 0 0 0 0 0 0 0 0 127 0" result="hardAlpha"/>
<feOffset dy="16"/>
<feGaussianBlur stdDeviation="2.25"/>
<feComposite in2="hardAlpha" operator="out"/>
<feColorMatrix type="matrix" values="0 0 0 0 1 0 0 0 0 1 0 0 0 0 1 0 0 0 0.25 0"/>
<feBlend mode="normal" in2="BackgroundImageFix" result="effect1_dropShadow_26_53"/>
<feBlend mode="normal" in="SourceGraphic" in2="effect1_dropShadow_26_53" result="shape"/>
</filter>
<filter id="filter7_f_26_53" x="108.301" y="987.027" width="511.855" height="195.901" filterUnits="userSpaceOnUse" color-interpolation-filters="sRGB">
<feFlood flood-opacity="0" result="BackgroundImageFix"/>
<feBlend mode="normal" in="SourceGraphic" in2="BackgroundImageFix" result="shape"/>
<feGaussianBlur stdDeviation="2" result="effect1_foregroundBlur_26_53"/>
</filter>
<filter id="filter8_df_26_53" x="146.858" y="1010.68" width="119.015" height="240.555" filterUnits="userSpaceOnUse" color-interpolation-filters="sRGB">
<feFlood flood-opacity="0" result="BackgroundImageFix"/>
<feColorMatrix in="SourceAlpha" type="matrix" values="0 0 0 0 0 0 0 0 0 0 0 0 0 0 0 0 0 0 127 0" result="hardAlpha"/>
<feOffset dy="169"/>
<feGaussianBlur stdDeviation="5.3"/>
<feComposite in2="hardAlpha" operator="out"/>
<feColorMatrix type="matrix" values="0 0 0 0 0.102938 0 0 0 0 0.913021 0 0 0 0 0.524181 0 0 0 0.46 0"/>
<feBlend mode="normal" in2="BackgroundImageFix" result="effect1_dropShadow_26_53"/>
<feBlend mode="normal" in="SourceGraphic" in2="effect1_dropShadow_26_53" result="shape"/>
<feGaussianBlur stdDeviation="0.95" result="effect2_foregroundBlur_26_53"/>
</filter>
<filter id="filter9_df_26_53" x="223.858" y="1030.68" width="119.015" height="240.555" filterUnits="userSpaceOnUse" color-interpolation-filters="sRGB">
<feFlood flood-opacity="0" result="BackgroundImageFix"/>
<feColorMatrix in="SourceAlpha" type="matrix" values="0 0 0 0 0 0 0 0 0 0 0 0 0 0 0 0 0 0 127 0" result="hardAlpha"/>
<feOffset dy="169"/>
<feGaussianBlur stdDeviation="5.3"/>
<feComposite in2="hardAlpha" operator="out"/>
<feColorMatrix type="matrix" values="0 0 0 0 0.102938 0 0 0 0 0.913021 0 0 0 0 0.524181 0 0 0 0.46 0"/>
<feBlend mode="normal" in2="BackgroundImageFix" result="effect1_dropShadow_26_53"/>
<feBlend mode="normal" in="SourceGraphic" in2="effect1_dropShadow_26_53" result="shape"/>
<feGaussianBlur stdDeviation="0.95" result="effect2_foregroundBlur_26_53"/>
</filter>
<filter id="filter10_df_26_53" x="378.858" y="1071.68" width="119.015" height="240.555" filterUnits="userSpaceOnUse" color-interpolation-filters="sRGB">
<feFlood flood-opacity="0" result="BackgroundImageFix"/>
<feColorMatrix in="SourceAlpha" type="matrix" values="0 0 0 0 0 0 0 0 0 0 0 0 0 0 0 0 0 0 127 0" result="hardAlpha"/>
<feOffset dy="169"/>
<feGaussianBlur stdDeviation="5.3"/>
<feComposite in2="hardAlpha" operator="out"/>
<feColorMatrix type="matrix" values="0 0 0 0 0.102938 0 0 0 0 0.913021 0 0 0 0 0.524181 0 0 0 0.46 0"/>
<feBlend mode="normal" in2="BackgroundImageFix" result="effect1_dropShadow_26_53"/>
<feBlend mode="normal" in="SourceGraphic" in2="effect1_dropShadow_26_53" result="shape"/>
<feGaussianBlur stdDeviation="0.95" result="effect2_foregroundBlur_26_53"/>
</filter>
<filter id="filter11_f_26_53" x="572.568" y="536.676" width="152.595" height="91.8639" filterUnits="userSpaceOnUse" color-interpolation-filters="sRGB">
<feFlood flood-opacity="0" result="BackgroundImageFix"/>
<feBlend mode="normal" in="SourceGraphic" in2="BackgroundImageFix" result="shape"/>
<feGaussianBlur stdDeviation="0.95" result="effect1_foregroundBlur_26_53"/>
</filter>
<filter id="filter12_f_26_53" x="680.568" y="564.676" width="152.595" height="91.8639" filterUnits="userSpaceOnUse" color-interpolation-filters="sRGB">
<feFlood flood-opacity="0" result="BackgroundImageFix"/>
<feBlend mode="normal" in="SourceGraphic" in2="BackgroundImageFix" result="shape"/>
<feGaussianBlur stdDeviation="0.95" result="effect1_foregroundBlur_26_53"/>
</filter>
<filter id="filter13_f_26_53" x="598.568" y="648.676" width="152.595" height="91.8639" filterUnits="userSpaceOnUse" color-interpolation-filters="sRGB">
<feFlood flood-opacity="0" result="BackgroundImageFix"/>
<feBlend mode="normal" in="SourceGraphic" in2="BackgroundImageFix" result="shape"/>
<feGaussianBlur stdDeviation="0.95" result="effect1_foregroundBlur_26_53"/>
</filter>
<filter id="filter14_f_26_53" x="490.568" y="617.676" width="152.595" height="91.8639" filterUnits="userSpaceOnUse" color-interpolation-filters="sRGB">
<feFlood flood-opacity="0" result="BackgroundImageFix"/>
<feBlend mode="normal" in="SourceGraphic" in2="BackgroundImageFix" result="shape"/>
<feGaussianBlur stdDeviation="0.95" result="effect1_foregroundBlur_26_53"/>
</filter>
<filter id="filter15_df_26_53" x="454.858" y="1091.68" width="119.015" height="240.555" filterUnits="userSpaceOnUse" color-interpolation-filters="sRGB">
<feFlood flood-opacity="0" result="BackgroundImageFix"/>
<feColorMatrix in="SourceAlpha" type="matrix" values="0 0 0 0 0 0 0 0 0 0 0 0 0 0 0 0 0 0 127 0" result="hardAlpha"/>
<feOffset dy="169"/>
<feGaussianBlur stdDeviation="5.3"/>
<feComposite in2="hardAlpha" operator="out"/>
<feColorMatrix type="matrix" values="0 0 0 0 0.102938 0 0 0 0 0.913021 0 0 0 0 0.524181 0 0 0 0.46 0"/>
<feBlend mode="normal" in2="BackgroundImageFix" result="effect1_dropShadow_26_53"/>
<feBlend mode="normal" in="SourceGraphic" in2="effect1_dropShadow_26_53" result="shape"/>
<feGaussianBlur stdDeviation="0.95" result="effect2_foregroundBlur_26_53"/>
</filter>
<filter id="filter16_d_26_53" x="289.521" y="1017.98" width="155.767" height="399.369" filterUnits="userSpaceOnUse" color-interpolation-filters="sRGB">
<feFlood flood-opacity="0" result="BackgroundImageFix"/>
<feColorMatrix in="SourceAlpha" type="matrix" values="0 0 0 0 0 0 0 0 0 0 0 0 0 0 0 0 0 0 127 0" result="hardAlpha"/>
<feOffset dx="28" dy="321"/>
<feGaussianBlur stdDeviation="2.95"/>
<feComposite in2="hardAlpha" operator="out"/>
<feColorMatrix type="matrix" values="0 0 0 0 0 0 0 0 0 0 0 0 0 0 0 0 0 0 0.25 0"/>
<feBlend mode="normal" in2="BackgroundImageFix" result="effect1_dropShadow_26_53"/>
<feBlend mode="normal" in="SourceGraphic" in2="effect1_dropShadow_26_53" result="shape"/>
</filter>
<linearGradient id="paint0_linear_26_53" x1="1333" y1="265.5" x2="354" y2="1542.5" gradientUnits="userSpaceOnUse">
<stop stop-color="#1AE986" stop-opacity="0.3"/>
<stop offset="1" stop-color="#3183FF" stop-opacity="0.64"/>
</linearGradient>
<linearGradient id="paint1_linear_26_53" x1="215" y1="536" x2="353.5" y2="1094" gradientUnits="userSpaceOnUse">
<stop offset="0.1875" stop-color="white" stop-opacity="0"/>
<stop offset="1" stop-color="white"/>
</linearGradient>
<linearGradient id="paint2_linear_26_53" x1="521" y1="211" x2="659.501" y2="769.001" gradientUnits="userSpaceOnUse">
<stop offset="0.1875" stop-color="white" stop-opacity="0"/>
<stop offset="1" stop-color="white"/>
</linearGradient>
</defs>
</svg>
